# Blender 3.3.1
# www.blender.org
mtllib column.mtl
o Column
v 0.000000 -0.000000 1.000000
v 0.000000 1.000000 1.000000
v 0.000000 0.000000 0.000000
v 0.000000 1.000000 0.000000
v 1.000000 -0.000000 1.000000
v 1.000000 1.000000 1.000000
v 1.000000 0.000000 0.000000
v 1.000000 1.000000 0.000000
v 0.812500 1.000000 0.000000
v 0.812500 0.000000 0.000000
v 0.187500 1.000000 0.000000
v 0.187500 0.000000 0.000000
v 0.000000 1.000000 0.187500
v 0.000000 0.000000 0.187500
v 0.000000 1.000000 0.812500
v 0.000000 -0.000000 0.812500
v 0.187500 1.000000 1.000000
v 0.187500 -0.000000 1.000000
v 0.812500 1.000000 1.000000
v 0.812500 -0.000000 1.000000
v 1.000000 1.000000 0.812500
v 1.000000 -0.000000 0.812500
v 1.000000 1.000000 0.187500
v 1.000000 0.000000 0.187500
v 0.062500 1.000000 0.812500
v 0.062500 1.000000 0.187500
v 0.812500 1.000000 0.062500
v 0.187500 1.000000 0.062500
v 0.187500 1.000000 0.937500
v 0.812500 1.000000 0.937500
v 0.937500 1.000000 0.812500
v 0.937500 1.000000 0.187500
v 0.062500 -0.000000 0.812500
v 0.062500 0.000000 0.187500
v 0.187500 -0.000000 0.937500
v 0.812500 -0.000000 0.937500
v 0.937500 -0.000000 0.812500
v 0.937500 0.000000 0.187500
v 0.187500 0.000000 0.062500
v 0.812500 0.000000 0.062500
vn -0.0000 -0.0000 1.0000
vn -0.0000 1.0000 -0.0000
vn -0.0000 -1.0000 -0.0000
vn -0.0000 -0.0000 -1.0000
vn -1.0000 -0.0000 -0.0000
vn 1.0000 -0.0000 -0.0000
vt 0.500000 0.000000
vt 0.500000 0.500000
vt 0.000000 0.000000
vt 0.500000 0.500000
vt 0.000000 0.500000
vt 0.500000 0.000000
vt 0.000000 0.000000
vt 0.500000 1.000000
vt 0.500000 0.500000
vt 0.000000 0.500000
vt 0.000000 1.000000
vt 0.500000 0.000000
vt 0.000000 0.500000
vt 0.000000 0.000000
vt 0.500000 0.500000
vt 0.000000 0.500000
vt 0.000000 1.000000
vt 0.000000 0.000000
vt 0.500000 0.000000
vt 0.500000 0.500000
vt 0.000000 0.500000
vt 0.500000 1.000000
vt 0.093750 0.500000
vt 0.500000 1.000000
vt 0.406250 1.000000
vt 0.093750 1.000000
vt 0.093750 0.000000
vt 0.500000 0.500000
vt 0.093750 1.000000
vt 0.406250 0.500000
vt 0.531250 1.000000
vt 0.531250 0.500000
vt 0.406250 0.000000
vt 0.406250 1.000000
vt 0.093750 0.500000
vt 0.500000 1.000000
vt 0.000000 0.906250
vt 0.500000 0.906250
vt 0.500000 0.500000
vt 0.093750 0.000000
vt 0.000000 0.593750
vt 0.406250 0.500000
vt 0.531250 1.000000
vt 0.406250 0.000000
vt 0.531250 0.500000
vt 0.500000 0.593750
vt 0.093750 0.500000
vt 0.500000 1.000000
vt 0.406250 0.500000
vt 0.093750 0.000000
vt 0.500000 0.500000
vt 0.406250 0.500000
vt 0.531250 1.000000
vt 0.531250 0.500000
vt 0.406250 0.000000
vt 0.093750 0.500000
vt 0.093750 0.500000
vt 0.500000 0.593750
vt 0.500000 1.000000
vt 0.000000 0.593750
vt 0.500000 0.500000
vt 0.093750 0.000000
vt 0.500000 0.906250
vt 0.406250 0.500000
vt 0.531250 1.000000
vt 0.531250 0.500000
vt 0.000000 0.906250
vt 0.406250 0.000000
vt 0.843750 1.000000
vt 0.500000 1.000000
vt 0.031250 0.593750
vt 0.531250 1.000000
vt 0.031250 0.906250
vt 0.531250 1.000000
vt 0.406250 0.968750
vt 0.843750 1.000000
vt 0.500000 1.000000
vt 0.093750 0.968750
vt 0.093750 0.531250
vt 0.531250 1.000000
vt 0.406250 0.531250
vt 0.843750 1.000000
vt 0.500000 1.000000
vt 0.531250 1.000000
vt 0.468750 0.593750
vt 0.843750 1.000000
vt 0.500000 1.000000
vt 0.468750 0.906250
vt 0.500000 0.500000
vt 0.843750 0.500000
vt 0.468750 0.593750
vt 0.531250 0.500000
vt 0.468750 0.906250
vt 0.531250 0.500000
vt 0.406250 0.531250
vt 0.843750 0.500000
vt 0.093750 0.531250
vt 0.500000 0.500000
vt 0.531250 0.500000
vt 0.031250 0.593750
vt 0.843750 0.500000
vt 0.500000 0.500000
vt 0.031250 0.906250
vt 0.843750 0.500000
vt 0.500000 0.500000
vt 0.406250 0.968750
vt 0.531250 0.500000
vt 0.093750 0.968750
s 0
usemtl Column
f 19/52/1 5/12/1 6/15/1
f 30/81/2 6/15/2 31/85/2
f 40/108/3 7/17/3 38/103/3
f 26/72/1 14/39/1 34/92/1
f 8/21/4 10/27/4 9/23/4
f 11/30/4 3/6/4 4/9/4
f 33/90/5 26/72/5 34/92/5
f 4/10/5 14/40/5 13/35/5
f 15/42/5 1/1/5 2/4/5
f 37/100/3 22/60/3 5/13/3
f 16/45/4 25/70/4 33/89/4
f 35/95/3 18/49/3 1/2/3
f 10/28/5 27/74/5 9/24/5
f 39/104/4 27/74/4 40/107/4
f 32/88/2 23/63/2 8/22/2
f 28/78/2 11/29/2 4/11/2
f 25/71/2 15/41/2 2/5/2
f 11/31/6 39/105/6 12/32/6
f 2/5/1 18/50/1 17/47/1
f 31/84/4 22/61/4 37/99/4
f 6/16/6 22/62/6 21/57/6
f 23/64/6 7/19/6 8/20/6
f 34/93/3 14/38/3 3/8/3
f 37/99/6 32/86/6 31/84/6
f 23/65/1 38/102/1 24/66/1
f 25/71/2 29/79/2 30/81/2
f 29/80/6 18/51/6 35/94/6
f 36/96/1 29/80/1 35/94/1
f 37/100/3 35/95/3 34/93/3
f 19/53/5 36/98/5 20/54/5
f 19/52/1 20/55/1 5/12/1
f 19/52/2 6/15/2 30/81/2
f 6/15/2 21/58/2 31/85/2
f 10/26/3 7/17/3 40/108/3
f 7/17/3 24/67/3 38/103/3
f 26/72/1 13/36/1 14/39/1
f 8/21/4 7/18/4 10/27/4
f 11/30/4 12/33/4 3/6/4
f 33/90/5 25/69/5 26/72/5
f 4/10/5 3/7/5 14/40/5
f 15/42/5 16/44/5 1/1/5
f 5/13/3 20/56/3 36/97/3
f 36/97/3 37/100/3 5/13/3
f 16/45/4 15/43/4 25/70/4
f 1/2/3 16/46/3 33/91/3
f 33/91/3 35/95/3 1/2/3
f 10/28/5 40/107/5 27/74/5
f 39/104/4 28/76/4 27/74/4
f 9/25/2 27/75/2 8/22/2
f 27/75/2 32/88/2 8/22/2
f 4/11/2 13/37/2 26/73/2
f 26/73/2 28/78/2 4/11/2
f 2/5/2 17/47/2 29/79/2
f 29/79/2 25/71/2 2/5/2
f 11/31/6 28/77/6 39/105/6
f 2/5/1 1/3/1 18/50/1
f 31/84/4 21/59/4 22/61/4
f 6/16/6 5/14/6 22/62/6
f 23/64/6 24/68/6 7/19/6
f 3/8/3 12/34/3 39/106/3
f 39/106/3 34/93/3 3/8/3
f 37/99/6 38/101/6 32/86/6
f 23/65/1 32/87/1 38/102/1
f 30/81/2 31/85/2 28/78/2
f 31/85/2 32/88/2 28/78/2
f 32/88/2 27/75/2 28/78/2
f 28/78/2 26/73/2 30/81/2
f 26/73/2 25/71/2 30/81/2
f 29/80/6 17/48/6 18/51/6
f 36/96/1 30/82/1 29/80/1
f 40/108/3 38/103/3 37/100/3
f 37/100/3 36/97/3 35/95/3
f 35/95/3 33/91/3 34/93/3
f 34/93/3 39/106/3 40/108/3
f 40/108/3 37/100/3 34/93/3
f 19/53/5 30/83/5 36/98/5
