# Blender 3.3.0
# www.blender.org
mtllib steel_scaffold.mtl
o Cube_Cube.001
v 0.125000 -0.000000 1.000000
v 0.125000 1.000000 1.000000
v 0.125000 0.000000 0.000000
v 0.125000 1.000000 0.000000
v 0.875000 -0.000000 1.000000
v 0.875000 1.000000 1.000000
v 0.875000 0.000000 0.000000
v 0.875000 1.000000 0.000000
v 0.250000 -0.000000 1.000000
v 0.250000 1.000000 1.000000
v 0.250000 0.000000 0.000000
v 0.250000 1.000000 0.000000
v 0.750000 -0.000000 1.000000
v 0.750000 1.000000 1.000000
v 0.750000 0.000000 0.000000
v 0.750000 1.000000 0.000000
v 0.250000 -0.000000 0.875000
v 0.250000 1.000000 0.875000
v 0.750000 -0.000000 0.875000
v 0.750000 1.000000 0.875000
v 0.250000 0.000000 0.125000
v 0.250000 1.000000 0.125000
v 0.750000 0.000000 0.125000
v 0.750000 1.000000 0.125000
v 0.125000 0.000000 0.125000
v 0.125000 1.000000 0.125000
v 0.875000 0.000000 0.125000
v 0.875000 1.000000 0.125000
v 0.125000 -0.000000 0.875000
v 0.125000 1.000000 0.875000
v 0.875000 -0.000000 0.875000
v 0.875000 1.000000 0.875000
v 0.250000 0.062500 0.875000
v 0.250000 0.062500 0.125000
v 0.125000 0.062500 0.125000
v 0.125000 0.062500 0.875000
v 0.250000 0.937500 0.875000
v 0.250000 0.937500 0.125000
v 0.125000 0.937500 0.125000
v 0.125000 0.937500 0.875000
v 0.250000 0.562500 0.500000
v 0.125000 0.562500 0.500000
v 0.250000 0.437500 0.500000
v 0.125000 0.437500 0.500000
v 0.250000 0.187500 0.875000
v 0.250000 0.187500 0.125000
v 0.125000 0.187500 0.125000
v 0.125000 0.187500 0.875000
v 0.250000 0.812500 0.875000
v 0.250000 0.812500 0.125000
v 0.125000 0.812500 0.125000
v 0.125000 0.812500 0.875000
v 0.250000 0.500000 0.562500
v 0.125000 0.500000 0.562500
v 0.250000 0.500000 0.437500
v 0.125000 0.500000 0.437500
v 0.875000 0.062500 0.875000
v 0.875000 0.062500 0.125000
v 0.750000 0.062500 0.125000
v 0.750000 0.062500 0.875000
v 0.875000 0.937500 0.875000
v 0.875000 0.937500 0.125000
v 0.750000 0.937500 0.125000
v 0.750000 0.937500 0.875000
v 0.875000 0.562500 0.500000
v 0.750000 0.562500 0.500000
v 0.875000 0.437500 0.500000
v 0.750000 0.437500 0.500000
v 0.875000 0.187500 0.875000
v 0.875000 0.187500 0.125000
v 0.750000 0.187500 0.125000
v 0.750000 0.187500 0.875000
v 0.875000 0.812500 0.875000
v 0.875000 0.812500 0.125000
v 0.750000 0.812500 0.125000
v 0.750000 0.812500 0.875000
v 0.875000 0.500000 0.562500
v 0.750000 0.500000 0.562500
v 0.875000 0.500000 0.437500
v 0.750000 0.500000 0.437500
v 0.750000 0.062500 0.875000
v 0.250000 0.062500 0.875000
v 0.250000 0.062500 1.000000
v 0.750000 0.062500 1.000000
v 0.750000 0.937500 0.875000
v 0.250000 0.937500 0.875000
v 0.250000 0.937500 1.000000
v 0.750000 0.937500 1.000000
v 0.500000 0.562500 0.875000
v 0.500000 0.562500 1.000000
v 0.500000 0.437500 0.875000
v 0.500000 0.437500 1.000000
v 0.750000 0.187500 0.875000
v 0.250000 0.187500 0.875000
v 0.250000 0.187500 1.000000
v 0.750000 0.187500 1.000000
v 0.750000 0.812500 0.875000
v 0.250000 0.812500 0.875000
v 0.250000 0.812500 1.000000
v 0.750000 0.812500 1.000000
v 0.541667 0.500000 0.875000
v 0.541667 0.500000 1.000000
v 0.458333 0.500000 0.875000
v 0.458333 0.500000 1.000000
v 0.750000 0.062500 0.000000
v 0.250000 0.062500 0.000000
v 0.250000 0.062500 0.125000
v 0.750000 0.062500 0.125000
v 0.750000 0.937500 0.000000
v 0.250000 0.937500 0.000000
v 0.250000 0.937500 0.125000
v 0.750000 0.937500 0.125000
v 0.500000 0.562500 0.000000
v 0.500000 0.562500 0.125000
v 0.500000 0.437500 0.000000
v 0.500000 0.437500 0.125000
v 0.750000 0.187500 0.000000
v 0.250000 0.187500 0.000000
v 0.250000 0.187500 0.125000
v 0.750000 0.187500 0.125000
v 0.750000 0.812500 0.000000
v 0.250000 0.812500 0.000000
v 0.250000 0.812500 0.125000
v 0.750000 0.812500 0.125000
v 0.541667 0.500000 0.000000
v 0.541667 0.500000 0.125000
v 0.458333 0.500000 0.000000
v 0.458333 0.500000 0.125000
vn -0.0000 1.0000 -0.0000
vn 1.0000 -0.0000 -0.0000
vn -0.0000 -0.0000 1.0000
vn -1.0000 -0.0000 -0.0000
vn -0.0000 -0.0000 -1.0000
vn -0.0000 -1.0000 -0.0000
vn -0.0000 -0.7071 0.7071
vn -0.0000 -0.7071 -0.7071
vn -0.0000 0.7071 0.7071
vn -0.0000 0.7071 -0.7071
vn 0.8321 -0.5547 -0.0000
vn -0.8321 -0.5547 -0.0000
vn 0.8321 0.5547 -0.0000
vn -0.8321 0.5547 -0.0000
vt 0.000000 0.125000
vt 0.125027 0.000035
vt 1.000000 0.000000
vt -0.000000 0.875000
vt 0.125000 1.000000
vt 1.000000 1.000000
vt 0.000035 0.000035
vt 0.875000 0.000000
vt 1.000000 0.125000
vt 0.875000 1.000000
vt 1.000000 0.875000
vt 0.000035 0.999965
vt -0.000000 0.875000
vt 0.000035 0.000035
vt 0.875000 0.000000
vt 0.000000 0.125000
vt 0.000035 0.999965
vt 0.875000 1.000000
vt 1.000000 0.000000
vt 0.125027 0.000035
vt 1.000000 0.875000
vt 1.000000 1.000000
vt 0.125000 1.000000
vt 1.000000 0.125000
vt 0.250000 0.000000
vt 0.000035 0.000035
vt 0.000000 0.250000
vt 0.000035 0.999965
vt 0.250000 1.000000
vt 0.000000 0.750000
vt 1.000000 0.000000
vt 0.750000 0.000000
vt 1.000000 0.250000
vt 1.000000 1.000000
vt 1.000000 0.750000
vt 0.750000 1.000000
vt 0.750000 0.000000
vt 1.000000 0.000000
vt 0.000000 0.750000
vt 0.750000 1.000000
vt 1.000000 1.000000
vt 0.000000 0.250000
vt 1.000000 0.750000
vt 0.250000 0.000000
vt 0.000035 0.000035
vt 0.250000 1.000000
vt 1.000000 0.250000
vt 0.000035 0.999965
vt 0.125027 0.000035
vt 0.750000 0.000000
vt 0.125000 0.250000
vt 0.125000 1.000000
vt 0.750000 1.000000
vt 0.125000 0.750000
vt 0.250000 0.000000
vt 0.875000 0.000000
vt 0.125000 0.750000
vt 0.875000 1.000000
vt 0.250000 1.000000
vt 0.125000 0.250000
vt 0.875000 0.250000
vt 0.875000 0.000000
vt 0.250000 0.000000
vt 0.875000 0.750000
vt 0.250000 1.000000
vt 0.875000 1.000000
vt 0.125027 0.000035
vt 0.750000 0.000000
vt 0.875000 0.750000
vt 0.125000 1.000000
vt 0.750000 1.000000
vt 0.875000 0.250000
vt 0.125027 0.000035
vt 0.875000 0.125000
vt 0.875000 0.875000
vt 0.125000 1.000000
vt 0.875000 0.000000
vt 0.875000 0.875000
vt 0.875000 1.000000
vt 0.875000 0.125000
vt 0.875000 0.000000
vt 0.125000 0.125000
vt 0.875000 1.000000
vt 0.125000 0.875000
vt 0.125027 0.000035
vt 0.125000 0.875000
vt 0.125000 1.000000
vt 0.125000 0.125000
vt 0.125000 0.250000
vt 0.125000 0.062500
vt 0.875000 0.062500
vt 0.875000 0.250000
vt 0.875000 0.125000
vt 0.125000 0.062500
vt 0.875000 0.062500
vt 0.125000 0.125000
vt 0.125000 0.937500
vt 0.125000 0.750000
vt 0.875000 0.750000
vt 0.875000 0.937500
vt 0.125000 0.937500
vt 0.875000 0.875000
vt 0.125000 0.875000
vt 0.875000 0.937500
vt 0.500000 0.750000
vt 0.500000 0.562500
vt 0.500000 0.875000
vt 0.500000 0.562500
vt 0.500000 0.250000
vt 0.500000 0.437500
vt 0.500000 0.125000
vt 0.500000 0.437500
vt 0.125000 0.750000
vt 0.125000 0.187500
vt 0.875000 0.750000
vt 0.875000 0.187500
vt 0.875000 0.875000
vt 0.125000 0.187500
vt 0.125000 0.875000
vt 0.875000 0.187500
vt 0.125000 0.250000
vt 0.125000 0.812500
vt 0.875000 0.250000
vt 0.875000 0.812500
vt 0.875000 0.125000
vt 0.125000 0.812500
vt 0.125000 0.125000
vt 0.875000 0.812500
vt 0.437500 0.750000
vt 0.437500 0.250000
vt 0.437500 0.500000
vt 0.437500 0.875000
vt 0.437500 0.125000
vt 0.562500 0.500000
vt 0.562500 0.250000
vt 0.562500 0.750000
vt 0.562500 0.500000
vt 0.562500 0.125000
vt 0.562500 0.875000
vt 0.437500 0.500000
vt 0.125000 0.875000
vt 0.125000 0.062500
vt 0.875000 0.062500
vt 0.875000 0.875000
vt 0.875000 0.750000
vt 0.125000 0.062500
vt 0.875000 0.062500
vt 0.125000 0.750000
vt 0.125000 0.937500
vt 0.125000 0.125000
vt 0.875000 0.125000
vt 0.875000 0.937500
vt 0.125000 0.937500
vt 0.875000 0.250000
vt 0.125000 0.250000
vt 0.875000 0.937500
vt 0.500000 0.125000
vt 0.500000 0.562500
vt 0.500000 0.250000
vt 0.500000 0.562500
vt 0.500000 0.875000
vt 0.500000 0.437500
vt 0.500000 0.750000
vt 0.500000 0.437500
vt 0.125000 0.125000
vt 0.125000 0.187500
vt 0.875000 0.125000
vt 0.875000 0.187500
vt 0.875000 0.250000
vt 0.125000 0.187500
vt 0.125000 0.250000
vt 0.875000 0.187500
vt 0.125000 0.875000
vt 0.125000 0.812500
vt 0.875000 0.875000
vt 0.875000 0.812500
vt 0.875000 0.750000
vt 0.125000 0.812500
vt 0.125000 0.750000
vt 0.875000 0.812500
vt 0.437500 0.125000
vt 0.250000 0.875000
vt 0.437500 0.500000
vt 0.437500 0.250000
vt 0.250000 0.750000
vt 0.562500 0.500000
vt 0.562500 0.875000
vt 0.562500 0.125000
vt 0.562500 0.500000
vt 0.562500 0.750000
vt 0.562500 0.250000
vt 0.437500 0.500000
vt 0.125000 0.750000
vt 0.250000 0.062500
vt 0.750000 0.062500
vt 0.125000 0.250000
vt 0.000000 0.250000
vt 0.250000 0.062500
vt 0.750000 0.062500
vt 0.000000 0.750000
vt 0.250000 0.937500
vt 0.125000 0.250000
vt 0.125000 0.750000
vt 0.750000 0.937500
vt 0.250000 0.937500
vt 0.000000 0.750000
vt 0.000000 0.250000
vt 0.750000 0.937500
vt 0.125000 0.500000
vt 0.500000 0.562500
vt 0.000000 0.500000
vt 0.500000 0.562500
vt 0.125000 0.500000
vt 0.500000 0.437500
vt 0.000000 0.500000
vt 0.500000 0.437500
vt 0.000000 0.750000
vt 0.250000 0.187500
vt 0.125000 0.458333
vt 0.750000 0.187500
vt 0.000000 0.458333
vt 0.250000 0.187500
vt 0.125000 0.750000
vt 0.750000 0.187500
vt 0.125000 0.750000
vt 0.250000 0.812500
vt 0.000000 0.458333
vt 0.750000 0.812500
vt 0.125000 0.458333
vt 0.250000 0.812500
vt 0.000000 0.750000
vt 0.750000 0.812500
vt 0.000000 0.541667
vt 0.125000 0.541667
vt 0.458333 0.500000
vt 0.125000 0.541667
vt 0.000000 0.541667
vt 0.541667 0.500000
vt 0.000000 0.250000
vt 0.125000 0.250000
vt 0.541667 0.500000
vt 0.125000 0.250000
vt 0.000000 0.250000
vt 0.458333 0.500000
vt 1.000000 0.750000
vt 0.250000 0.062500
vt 0.750000 0.062500
vt 1.000000 0.250000
vt 0.875000 0.250000
vt 0.250000 0.062500
vt 0.750000 0.062500
vt 0.875000 0.750000
vt 0.250000 0.937500
vt 1.000000 0.250000
vt 1.000000 0.750000
vt 0.750000 0.937500
vt 0.250000 0.937500
vt 0.875000 0.750000
vt 0.875000 0.250000
vt 0.750000 0.937500
vt 1.000000 0.500000
vt 0.500000 0.562500
vt 0.875000 0.500000
vt 0.500000 0.562500
vt 1.000000 0.500000
vt 0.500000 0.437500
vt 0.875000 0.500000
vt 0.500000 0.437500
vt 0.875000 0.750000
vt 0.250000 0.187500
vt 1.000000 0.458333
vt 0.750000 0.187500
vt 0.875000 0.458333
vt 0.250000 0.187500
vt 1.000000 0.750000
vt 0.750000 0.187500
vt 1.000000 0.750000
vt 0.250000 0.812500
vt 0.875000 0.458333
vt 0.750000 0.812500
vt 1.000000 0.458333
vt 0.250000 0.812500
vt 0.875000 0.750000
vt 0.750000 0.812500
vt 0.875000 0.541667
vt 1.000000 0.541667
vt 0.458333 0.500000
vt 1.000000 0.541667
vt 0.875000 0.541667
vt 0.541667 0.500000
vt 0.875000 0.250000
vt 1.000000 0.250000
vt 0.541667 0.500000
vt 1.000000 0.250000
vt 0.875000 0.250000
vt 0.458333 0.500000
s 0
usemtl None
f 26/75/1 22/64/1 12/35/1
f 11/31/2 12/34/2 22/66/2
f 21/63/3 22/65/3 26/76/3
f 25/73/4 26/76/4 4/12/4
f 3/8/5 4/10/5 12/36/5
f 11/33/6 21/61/6 25/74/6
f 9/26/2 17/49/2 18/52/2
f 1/2/3 9/25/3 10/29/3
f 17/50/5 29/81/5 30/83/5
f 30/83/4 29/81/4 1/3/4
f 9/27/6 1/1/6 29/82/6
f 30/84/1 2/4/1 10/30/1
f 20/59/5 32/87/5 31/85/5
f 31/85/2 32/87/2 6/17/2
f 6/18/3 14/40/3 13/37/3
f 14/41/4 20/58/4 19/56/4
f 31/86/6 5/13/6 13/39/6
f 14/42/1 6/16/1 32/88/1
f 8/22/2 28/79/2 27/77/2
f 15/44/5 16/46/5 8/23/5
f 23/67/4 24/70/4 16/48/4
f 27/77/3 28/79/3 24/71/3
f 8/24/1 16/47/1 24/72/1
f 23/69/6 15/43/6 7/21/6
f 43/109/7 44/111/7 35/93/7
f 36/96/8 44/111/8 43/109/8
f 53/129/9 54/132/9 48/119/9
f 52/127/7 54/133/7 53/130/7
f 41/105/10 42/107/10 40/103/10
f 39/102/9 42/107/9 41/105/9
f 55/135/8 56/138/8 51/125/8
f 47/117/10 56/139/10 55/136/10
f 42/108/4 54/134/4 52/128/4
f 44/112/4 36/95/4 48/120/4
f 42/108/4 39/101/4 51/126/4
f 44/112/4 56/140/4 47/118/4
f 43/110/2 34/91/2 46/116/2
f 41/106/2 55/137/2 50/124/2
f 41/106/2 37/97/2 49/122/2
f 54/134/4 42/108/4 56/140/4
f 43/110/2 53/131/2 45/114/2
f 41/106/2 53/131/2 43/110/2
f 67/161/7 68/163/7 59/145/7
f 60/148/8 68/163/8 67/161/8
f 77/181/9 78/184/9 72/171/9
f 76/179/7 78/185/7 77/182/7
f 65/157/10 66/159/10 64/155/10
f 63/154/9 66/159/9 65/157/9
f 79/187/8 80/190/8 75/177/8
f 71/169/10 80/191/10 79/188/10
f 66/160/4 78/186/4 76/180/4
f 68/164/4 60/147/4 72/172/4
f 66/160/4 63/153/4 75/178/4
f 68/164/4 80/192/4 71/170/4
f 67/162/2 58/143/2 70/168/2
f 65/158/2 79/189/2 74/176/2
f 65/158/2 61/149/2 73/174/2
f 78/186/4 66/160/4 80/192/4
f 67/162/2 77/183/2 69/166/2
f 65/158/2 77/183/2 67/162/2
f 91/213/11 92/215/11 83/197/11
f 84/200/12 92/215/12 91/213/12
f 101/233/13 102/236/13 96/223/13
f 100/231/11 102/237/11 101/234/11
f 89/209/14 90/211/14 88/207/14
f 87/206/13 90/211/13 89/209/13
f 103/239/12 104/242/12 99/229/12
f 95/221/14 104/243/14 103/240/14
f 90/212/3 102/238/3 100/232/3
f 92/216/3 84/199/3 96/224/3
f 90/212/3 87/205/3 99/230/3
f 92/216/3 104/244/3 95/222/3
f 91/214/5 82/195/5 94/220/5
f 89/210/5 103/241/5 98/228/5
f 89/210/5 85/201/5 97/226/5
f 102/238/3 90/212/3 104/244/3
f 91/214/5 101/235/5 93/218/5
f 103/241/5 89/210/5 101/235/5
f 115/265/11 116/267/11 107/249/11
f 108/252/12 116/267/12 115/265/12
f 125/285/13 126/288/13 120/275/13
f 124/283/11 126/289/11 125/286/11
f 113/261/14 114/263/14 112/259/14
f 111/258/13 114/263/13 113/261/13
f 127/291/12 128/294/12 123/281/12
f 119/273/14 128/295/14 127/292/14
f 114/264/3 126/290/3 124/284/3
f 116/268/3 108/251/3 120/276/3
f 114/264/3 111/257/3 123/282/3
f 116/268/3 128/296/3 119/274/3
f 115/266/5 106/247/5 118/272/5
f 113/262/5 127/293/5 122/280/5
f 113/262/5 109/253/5 121/278/5
f 126/290/3 114/264/3 128/296/3
f 115/266/5 125/287/5 117/270/5
f 127/293/5 113/262/5 125/287/5
f 4/11/1 26/75/1 12/35/1
f 21/62/2 11/31/2 22/66/2
f 25/73/3 21/63/3 26/76/3
f 3/7/4 25/73/4 4/12/4
f 11/32/5 3/8/5 12/36/5
f 3/9/6 11/33/6 25/74/6
f 10/28/2 9/26/2 18/52/2
f 2/5/3 1/2/3 10/29/3
f 18/53/5 17/50/5 30/83/5
f 2/6/4 30/83/4 1/3/4
f 17/51/6 9/27/6 29/82/6
f 18/54/1 30/84/1 10/30/1
f 19/55/5 20/59/5 31/85/5
f 5/14/2 31/85/2 6/17/2
f 5/15/3 6/18/3 13/37/3
f 13/38/4 14/41/4 19/56/4
f 19/57/6 31/86/6 13/39/6
f 20/60/1 14/42/1 32/88/1
f 7/19/2 8/22/2 27/77/2
f 7/20/5 15/44/5 8/23/5
f 15/45/4 23/67/4 16/48/4
f 23/68/3 27/77/3 24/71/3
f 28/80/1 8/24/1 24/72/1
f 27/78/6 23/69/6 7/21/6
f 34/92/7 43/109/7 35/93/7
f 33/89/8 36/96/8 43/109/8
f 45/113/9 53/129/9 48/119/9
f 49/121/7 52/127/7 53/130/7
f 37/98/10 41/105/10 40/103/10
f 38/99/9 39/102/9 41/105/9
f 50/123/8 55/135/8 51/125/8
f 46/115/10 47/117/10 55/136/10
f 40/104/4 42/108/4 52/128/4
f 54/134/4 44/112/4 48/120/4
f 56/140/4 42/108/4 51/126/4
f 35/94/4 44/112/4 47/118/4
f 55/137/2 43/110/2 46/116/2
f 38/100/2 41/106/2 50/124/2
f 53/131/2 41/106/2 49/122/2
f 44/112/4 54/134/4 56/140/4
f 33/90/2 43/110/2 45/114/2
f 55/137/2 41/106/2 43/110/2
f 58/144/7 67/161/7 59/145/7
f 57/141/8 60/148/8 67/161/8
f 69/165/9 77/181/9 72/171/9
f 73/173/7 76/179/7 77/182/7
f 61/150/10 65/157/10 64/155/10
f 62/151/9 63/154/9 65/157/9
f 74/175/8 79/187/8 75/177/8
f 70/167/10 71/169/10 79/188/10
f 64/156/4 66/160/4 76/180/4
f 78/186/4 68/164/4 72/172/4
f 80/192/4 66/160/4 75/178/4
f 59/146/4 68/164/4 71/170/4
f 79/189/2 67/162/2 70/168/2
f 62/152/2 65/158/2 74/176/2
f 77/183/2 65/158/2 73/174/2
f 68/164/4 78/186/4 80/192/4
f 57/142/2 67/162/2 69/166/2
f 79/189/2 65/158/2 67/162/2
f 82/196/11 91/213/11 83/197/11
f 81/193/12 84/200/12 91/213/12
f 93/217/13 101/233/13 96/223/13
f 97/225/11 100/231/11 101/234/11
f 85/202/14 89/209/14 88/207/14
f 86/203/13 87/206/13 89/209/13
f 98/227/12 103/239/12 99/229/12
f 94/219/14 95/221/14 103/240/14
f 88/208/3 90/212/3 100/232/3
f 102/238/3 92/216/3 96/224/3
f 104/244/3 90/212/3 99/230/3
f 83/198/3 92/216/3 95/222/3
f 103/241/5 91/214/5 94/220/5
f 86/204/5 89/210/5 98/228/5
f 101/235/5 89/210/5 97/226/5
f 92/216/3 102/238/3 104/244/3
f 81/194/5 91/214/5 93/218/5
f 91/214/5 103/241/5 101/235/5
f 106/248/11 115/265/11 107/249/11
f 105/245/12 108/252/12 115/265/12
f 117/269/13 125/285/13 120/275/13
f 121/277/11 124/283/11 125/286/11
f 109/254/14 113/261/14 112/259/14
f 110/255/13 111/258/13 113/261/13
f 122/279/12 127/291/12 123/281/12
f 118/271/14 119/273/14 127/292/14
f 112/260/3 114/264/3 124/284/3
f 126/290/3 116/268/3 120/276/3
f 128/296/3 114/264/3 123/282/3
f 107/250/3 116/268/3 119/274/3
f 127/293/5 115/266/5 118/272/5
f 110/256/5 113/262/5 122/280/5
f 125/287/5 113/262/5 121/278/5
f 116/268/3 126/290/3 128/296/3
f 105/246/5 115/266/5 117/270/5
f 115/266/5 127/293/5 125/287/5
