# Blender v2.93.1 OBJ File: 'Little Boy.blend'
# www.blender.org
mtllib little_boy.mtl
o Little_Boy_Cylinder_Cylinder.002
v 0.391250 0.147500 1.438437
v 0.391250 0.002500 1.438437
v 0.608750 0.002500 1.438437
v 0.391250 0.147500 -0.138438
v 0.391250 0.002500 -0.138438
v 0.608750 0.147500 -0.138438
v 0.608750 0.002500 -0.138438
v 0.608750 0.147500 1.438437
v 0.638582 0.367597 2.850000
v 0.557403 0.563581 2.850000
v 0.361418 0.482402 2.850000
v 0.175000 0.100000 2.150000
v 0.175000 0.100000 2.850000
v 0.500000 0.100000 2.850000
v 0.925000 0.850000 2.850000
v 0.925000 -0.000000 2.850000
v 0.925000 -0.000000 2.150000
v 0.075000 0.850000 2.850000
v 0.075000 0.850000 2.150000
v 0.075000 0.000000 2.150000
v 0.175000 0.425000 2.150000
v 0.175000 0.425000 2.850000
v 0.350000 0.425000 2.150000
v 0.361418 0.367598 2.150000
v 0.361418 0.367597 2.850000
v 0.393934 0.318934 2.150000
v 0.393934 0.318933 2.850000
v 0.442597 0.286418 2.150000
v 0.442597 0.286417 2.850000
v 0.500000 0.275000 2.150000
v 0.500000 0.274999 2.850000
v 0.557403 0.286418 2.150000
v 0.557403 0.286417 2.850000
v 0.606066 0.318934 2.150000
v 0.606066 0.318933 2.850000
v 0.638582 0.367598 2.150000
v 0.650000 0.425000 2.150000
v 0.650000 0.424999 2.850000
v 0.638582 0.482403 2.150000
v 0.638582 0.482402 2.850000
v 0.606066 0.531066 2.150000
v 0.606066 0.531065 2.850000
v 0.557403 0.563582 2.150000
v 0.500000 0.575000 2.150000
v 0.500000 0.574999 2.850000
v 0.442597 0.563582 2.150000
v 0.442597 0.563581 2.850000
v 0.393934 0.531066 2.150000
v 0.393934 0.531065 2.850000
v 0.361418 0.482403 2.150000
v 0.350000 0.424999 2.850000
v 0.633939 0.748357 1.450000
v 0.500000 0.774999 1.450000
v 0.747487 0.672487 1.450000
v 0.823358 0.558939 1.450000
v 0.850000 0.424999 1.450000
v 0.823358 0.291060 1.450000
v 0.747487 0.177512 1.450000
v 0.633939 0.101642 1.450000
v 0.366061 0.101642 1.450000
v 0.500000 0.074999 1.450000
v 0.252513 0.177512 1.450000
v 0.176642 0.291060 1.450000
v 0.150000 0.424999 1.450000
v 0.176642 0.558938 1.450000
v 0.252513 0.672487 1.450000
v 0.366061 0.748357 1.450000
v 0.075000 0.000000 2.850000
v 0.675000 0.425000 -0.350000
v 0.500000 0.250000 -0.350000
v 0.325000 0.425000 -0.350000
v 0.712132 0.212868 0.375000
v 0.712132 0.212868 0.125000
v 0.888909 0.036091 0.125000
v 0.500000 0.600000 -0.350000
v 0.500000 0.775001 -0.175000
v 0.633939 0.748359 -0.175000
v 0.433030 0.586679 -0.350000
v 0.366061 0.748359 -0.175000
v 0.376256 0.548744 -0.350000
v 0.252513 0.672488 -0.175000
v 0.338321 0.491970 -0.350000
v 0.176642 0.558940 -0.175000
v 0.150000 0.425001 -0.175000
v 0.338321 0.358031 -0.350000
v 0.176642 0.291062 -0.175000
v 0.376256 0.301256 -0.350000
v 0.252513 0.177513 -0.175000
v 0.433030 0.263321 -0.350000
v 0.366061 0.101643 -0.175000
v 0.500000 0.075001 -0.175000
v 0.566970 0.263321 -0.350000
v 0.633939 0.101643 -0.175000
v 0.623744 0.301256 -0.350000
v 0.747487 0.177513 -0.175000
v 0.661679 0.358031 -0.350000
v 0.823358 0.291062 -0.175000
v 0.850000 0.425001 -0.175000
v 0.661679 0.491970 -0.350000
v 0.823358 0.558940 -0.175000
v 0.623744 0.548744 -0.350000
v 0.747487 0.672488 -0.175000
v 0.566970 0.586679 -0.350000
v 0.888909 0.036091 0.125000
v 0.712132 0.212868 0.125000
v 0.712132 0.212868 0.375000
v 0.287868 0.637132 0.125000
v 0.111091 0.813909 0.125000
v 0.111091 0.813909 0.375000
v 0.111091 0.036091 0.125000
v 0.287868 0.212868 0.125000
v 0.287868 0.212868 0.375000
v 0.712132 0.637132 0.125000
v 0.888909 0.813909 0.125000
v 0.888909 0.813909 0.375000
v 0.350000 0.424999 2.850000
v 0.350000 0.425000 2.150000
v 0.175000 0.425000 2.150000
v 0.500000 0.274999 2.850000
v 0.500000 0.100000 2.850000
v 0.500000 0.100000 2.150000
v 0.825000 0.425000 2.850000
v 0.825000 0.425000 2.150000
v 0.650000 0.425000 2.150000
v 0.500000 0.575000 2.150000
v 0.500000 0.750000 2.150000
v 0.500000 0.750000 2.850000
v 0.175000 0.750000 2.850000
v 0.175000 0.750000 2.150000
v 0.393934 0.531066 2.150000
v 0.825000 0.750000 2.850000
v 0.825000 0.750000 2.150000
v 0.606066 0.531066 2.150000
v 0.606066 0.318933 2.850000
v 0.825000 0.100000 2.850000
v 0.825000 0.100000 2.150000
v 0.393934 0.318933 2.850000
v 0.175000 0.100000 2.850000
v 0.175000 0.100000 2.150000
v 0.175000 0.750000 2.150000
v 0.175000 0.750000 2.850000
v 0.500000 0.750000 2.850000
v 0.825000 0.750000 2.150000
v 0.825000 0.750000 2.850000
v 0.825000 0.425000 2.150000
v 0.825000 0.100000 2.150000
v 0.825000 0.100000 2.850000
v 0.500000 0.100000 2.150000
v 0.825000 0.425000 2.850000
v 0.925000 0.850000 2.150000
v 0.500000 0.750000 2.150000
v 0.111091 0.813909 0.375000
v 0.111091 0.813909 0.125000
v 0.287868 0.637132 0.125000
v 0.111091 0.036091 0.375000
v 0.287868 0.212868 0.375000
v 0.287868 0.212868 0.125000
v 0.888909 0.813909 0.375000
v 0.888909 0.813909 0.125000
v 0.712132 0.637132 0.125000
v 0.175000 0.425000 2.150000
v 0.350000 0.425000 2.150000
v 0.350000 0.424999 2.850000
v 0.500000 0.274999 2.850000
v 0.500000 0.275000 2.150000
v 0.500000 0.100000 2.150000
v 0.650000 0.425000 2.150000
v 0.825000 0.425000 2.150000
v 0.825000 0.425000 2.850000
v 0.500000 0.750000 2.850000
v 0.500000 0.750000 2.150000
v 0.500000 0.575000 2.150000
v 0.393934 0.531066 2.150000
v 0.175000 0.750000 2.150000
v 0.175000 0.750000 2.850000
v 0.606066 0.531066 2.150000
v 0.825000 0.750000 2.150000
v 0.825000 0.750000 2.850000
v 0.606066 0.318933 2.850000
v 0.606066 0.318934 2.150000
v 0.825000 0.100000 2.150000
v 0.393934 0.318933 2.850000
v 0.393934 0.318934 2.150000
v 0.175000 0.100000 2.150000
v 0.500000 0.100000 2.850000
v 0.888909 0.036091 0.375000
v 0.888909 0.036091 0.375000
v 0.287868 0.637132 0.375000
v 0.111091 0.036091 0.375000
v 0.712132 0.637132 0.375000
v 0.175000 0.425000 2.850000
v 0.500000 0.275000 2.150000
v 0.650000 0.424999 2.850000
v 0.500000 0.574999 2.850000
v 0.393934 0.531065 2.850000
v 0.606066 0.531065 2.850000
v 0.606066 0.318934 2.150000
v 0.393934 0.318934 2.150000
v 0.287868 0.637132 0.375000
v 0.111091 0.036091 0.125000
v 0.712132 0.637132 0.375000
v 0.175000 0.425000 2.850000
v 0.650000 0.424999 2.850000
v 0.500000 0.574999 2.850000
v 0.393934 0.531065 2.850000
v 0.606066 0.531065 2.850000
v 0.825000 0.100000 2.850000
v 0.175000 0.100000 2.850000
vt 0.934783 0.607143
vt 0.934783 0.678571
vt 0.913043 0.678571
vt 0.913043 0.607143
vt 0.652174 0.678571
vt 0.652174 0.607143
vt 0.130435 0.321429
vt 0.000000 0.321429
vt 0.000000 0.214286
vt 0.130435 0.214286
vt 0.141304 0.500000
vt 0.271739 0.500000
vt 0.271739 0.607143
vt 0.141304 0.607143
vt 0.413043 0.285714
vt 0.413043 0.392857
vt 0.478261 0.392857
vt 0.478261 0.285714
vt 0.141304 0.500000
vt 0.141304 0.607143
vt 0.271739 0.607143
vt 0.271739 0.500000
vt 0.913043 0.714286
vt 0.652174 0.714286
vt 0.478261 0.392857
vt 0.413043 0.392857
vt 0.413043 0.285714
vt 0.478261 0.285714
vt 0.413043 0.500000
vt 0.282609 0.500000
vt 0.282609 0.250000
vt 0.413043 0.250000
vt 0.478261 0.392857
vt 0.413043 0.392857
vt 0.413043 0.285714
vt 0.478261 0.285714
vt 0.413043 0.053571
vt 0.543478 0.053571
vt 0.543478 0.071429
vt 0.413043 0.071429
vt 0.413043 0.196429
vt 0.543478 0.196429
vt 0.543478 0.214286
vt 0.413043 0.214286
vt 0.413043 0.160714
vt 0.543478 0.160714
vt 0.543478 0.178571
vt 0.413043 0.178571
vt 0.673913 0.285714
vt 0.956522 0.285714
vt 0.956522 0.321429
vt 0.673913 0.321429
vt 0.413043 0.267857
vt 0.543478 0.267857
vt 0.543478 0.285714
vt 0.413043 0.285714
vt 0.413043 0.125000
vt 0.413043 0.107143
vt 0.543478 0.107143
vt 0.543478 0.125000
vt 0.673913 0.107143
vt 0.956522 0.107143
vt 0.956522 0.142857
vt 0.673913 0.142857
vt 0.413043 0.232143
vt 0.543478 0.232143
vt 0.543478 0.250000
vt 0.413043 0.250000
vt 0.956522 0.178571
vt 0.673913 0.178571
vt 0.413043 0.035714
vt 0.543478 0.035714
vt 0.413043 0.089286
vt 0.543478 0.089286
vt 0.673913 0.035714
vt 0.956522 0.035714
vt 0.956522 0.071429
vt 0.673913 0.071429
vt 0.997018 0.625000
vt 0.967391 0.673673
vt 0.937764 0.625000
vt 0.967391 0.576327
vt 0.413043 0.017857
vt 0.543478 0.017857
vt 0.673913 0.392857
vt 0.956522 0.392857
vt 0.956522 0.428571
vt 0.673913 0.428571
vt 0.673913 0.214286
vt 0.543478 0.214286
vt 0.543478 0.196429
vt 0.543478 0.339286
vt 0.673913 0.357143
vt 0.543478 0.357143
vt 0.543478 0.107143
vt 0.543478 0.089286
vt 0.543478 0.446429
vt 0.673913 0.464286
vt 0.543478 0.464286
vt 0.543478 0.303571
vt 0.543478 0.321429
vt 0.543478 0.482143
vt 0.673913 0.500000
vt 0.543478 0.500000
vt 0.543478 0.517857
vt 0.673913 0.535714
vt 0.543478 0.535714
vt 1.000000 0.267857
vt 1.000000 0.285714
vt 0.956522 0.250000
vt 0.673913 -0.000000
vt 0.543478 0.035714
vt 0.543478 0.017857
vt 0.543478 0.375000
vt 0.543478 0.392857
vt 0.543478 0.071429
vt 0.543478 0.053571
vt 0.543478 0.142857
vt 0.543478 0.125000
vt 0.543478 0.178571
vt 0.543478 0.160714
vt 0.543478 0.232143
vt 0.673913 0.250000
vt 0.543478 0.250000
vt 0.543478 0.553571
vt 0.673913 0.571429
vt 0.543478 0.571429
vt 0.543478 0.285714
vt 0.543478 0.267857
vt 0.130435 0.000000
vt 0.130435 0.107143
vt 0.000000 0.107143
vt 0.000000 0.000000
vt 0.543478 0.142857
vt 0.413043 0.142857
vt 0.413043 0.285714
vt 0.478261 0.285714
vt 0.478261 0.392857
vt 0.413043 0.392857
vt 1.000000 0.303571
vt 1.000000 0.321429
vt 1.000000 0.160714
vt 1.000000 0.178571
vt 1.000000 0.482143
vt 1.000000 0.500000
vt 0.956522 0.500000
vt 0.956522 0.464286
vt 1.000000 0.232143
vt 1.000000 0.250000
vt 0.956522 0.214286
vt 1.000000 0.553571
vt 1.000000 0.571429
vt 0.956522 0.571429
vt 0.956522 0.535714
vt 1.000000 0.125000
vt 1.000000 0.142857
vt 1.000000 0.089286
vt 1.000000 0.107143
vt 1.000000 0.446429
vt 1.000000 0.464286
vt 1.000000 0.017857
vt 1.000000 0.035714
vt 0.956522 0.000000
vt 1.000000 0.053571
vt 1.000000 0.071429
vt 1.000000 0.517857
vt 1.000000 0.535714
vt 0.573497 0.642379
vt 0.573143 0.609026
vt 0.622155 0.607621
vt 0.608405 0.664969
vt 1.000000 0.196429
vt 1.000000 0.214286
vt 1.000000 0.410714
vt 1.000000 0.428571
vt 0.956522 0.357143
vt 1.000000 0.375000
vt 1.000000 0.392857
vt 1.000000 0.339286
vt 1.000000 0.357143
vt 0.141304 0.500000
vt 0.271739 0.500000
vt 0.271739 0.607143
vt 0.141304 0.607143
vt 0.141304 0.607143
vt 0.141304 0.500000
vt 0.271739 0.500000
vt 0.271739 0.607143
vt 0.543478 0.410714
vt 0.543478 0.428571
vt 0.413043 -0.000000
vt 0.543478 -0.000000
vt 0.141304 0.500000
vt 0.271739 0.500000
vt 0.271739 0.607143
vt 0.141304 0.607143
vt 0.130435 0.428571
vt 0.000000 0.428571
vt 0.413043 0.750000
vt 0.282609 0.750000
vt 0.478261 0.392857
vt 0.478261 0.285714
vt 0.413043 0.285714
vt 0.413043 0.392857
vt 0.141304 0.500000
vt 0.271739 0.500000
vt 0.271739 0.607143
vt 0.141304 0.607143
vt 0.271739 0.500000
vt 0.141304 0.500000
vt 0.141304 0.607143
vt 0.271739 0.607143
vt 0.271739 0.607143
vt 0.271739 0.500000
vt 0.141304 0.500000
vt 0.141304 0.607143
vt 0.271739 0.500000
vt 0.141304 0.500000
vt 0.141304 0.607143
vt 0.271739 0.607143
vt 0.271739 0.500000
vt 0.271739 0.607143
vt 0.141304 0.607143
vt 0.141304 0.500000
vt 0.141304 0.500000
vt 0.271739 0.500000
vt 0.271739 0.607143
vt 0.141304 0.607143
vt 0.271739 0.607143
vt 0.271739 0.500000
vt 0.141304 0.500000
vt 0.141304 0.607143
vt -0.000000 0.535714
vt 0.130435 0.535714
vt 0.282609 -0.000000
vt 0.413043 -0.000000
vt 0.271739 0.500000
vt 0.141304 0.500000
vt 0.141304 0.607143
vt 0.271739 0.607143
vt 0.130435 0.750000
vt 0.130435 0.857143
vt -0.000000 0.857143
vt -0.000000 0.750000
vt 0.271739 0.500000
vt 0.271739 0.607143
vt 0.141304 0.607143
vt 0.141304 0.500000
vt 0.141304 0.500000
vt 0.271739 0.500000
vt 0.130435 0.642857
vt -0.000000 0.642857
vt 0.141304 0.500000
vt 0.271739 0.500000
vt 0.413043 0.285714
vt 0.478261 0.285714
vt 0.478261 0.392857
vt 0.413043 0.392857
vt 0.206522 0.214286
vt 0.260870 0.214286
vt 0.282609 0.250000
vt 0.260870 0.125000
vt 0.260870 0.035714
vt 0.282609 -0.000000
vt 0.152174 0.125000
vt 0.152174 0.214286
vt 0.130435 0.250000
vt 0.206522 0.035714
vt 0.206522 0.285714
vt 0.152174 0.285714
vt 0.130435 0.250000
vt 0.152174 0.375000
vt 0.152174 0.464286
vt 0.130435 0.500000
vt 0.206522 0.464286
vt 0.282609 0.500000
vt 0.260870 0.375000
vt 0.282609 0.250000
vt 0.282609 1.000000
vt 0.413043 1.000000
vt 0.271739 0.500000
vt 0.271739 0.607143
vt 0.141304 0.607143
vt 0.141304 0.500000
vt 0.141304 0.500000
vt 0.271739 0.500000
vt 0.141304 0.607143
vt 0.271739 0.607143
vt 0.271739 0.500000
vt 0.141304 0.500000
vt 0.141304 0.500000
vt 0.271739 0.500000
vt 0.271739 0.500000
vt 0.271739 0.607143
vt 0.141304 0.607143
vt 0.141304 0.500000
vt 0.271739 0.500000
vt 0.141304 0.500000
vt 0.141304 0.607143
vt 0.271739 0.607143
vt 0.271739 0.607143
vt 0.271739 0.500000
vt 0.141304 0.500000
vt 0.141304 0.607143
vt 0.652174 0.571429
vt 0.913043 0.571429
vt 0.413043 0.285714
vt 0.413043 0.392857
vt 0.478261 0.392857
vt 0.478261 0.285714
vt 0.141304 0.500000
vt 0.141304 0.607143
vt 0.271739 0.607143
vt 0.271739 0.500000
vt 0.413043 0.392857
vt 0.478261 0.392857
vt 0.478261 0.285714
vt 0.413043 0.285714
vt 0.571301 0.625761
vt 0.578743 0.594724
vt 0.587248 0.585031
vt 0.597363 0.581423
vt 0.607549 0.584449
vt 0.616255 0.593649
vt 0.624351 0.624239
vt 0.622509 0.640974
vt 0.616910 0.655276
vt 0.598289 0.668577
vt 0.588103 0.665551
vt 0.579397 0.656351
vt 0.994763 0.643627
vt 0.988341 0.659417
vt 0.978729 0.669968
vt 0.956053 0.669968
vt 0.946442 0.659417
vt 0.940019 0.643626
vt 0.940019 0.606374
vt 0.946442 0.590583
vt 0.956053 0.580032
vt 0.978729 0.580032
vt 0.988341 0.590583
vt 0.994763 0.606374
vt 0.130435 0.000000
vt 0.152174 0.035714
vt 0.260870 0.285714
vt 0.260870 0.464286
vt 0.630435 0.678571
vt 0.630435 0.607143
vn 0.0000 0.0000 -1.0000
vn -0.0000 -1.0000 0.0000
vn -0.7071 -0.7071 0.0000
vn -0.7071 0.7071 0.0000
vn 1.0000 -0.0000 -0.0000
vn 0.7071 0.7071 -0.0000
vn 0.7071 -0.7071 -0.0000
vn 0.9808 -0.1951 -0.0000
vn -0.9808 0.1951 0.0000
vn -0.5556 0.8315 0.0000
vn -0.1951 0.9808 0.0000
vn -0.1951 -0.9808 -0.0000
vn 0.5556 0.8315 0.0000
vn -0.8315 -0.5556 -0.0000
vn 0.9808 0.1951 0.0000
vn 0.8315 -0.5556 -0.0000
vn 0.8315 0.5556 0.0000
vn 0.5556 -0.8315 -0.0000
vn 0.8006 0.5350 0.2698
vn -0.5350 0.8006 0.2698
vn 0.8006 -0.5350 0.2698
vn -0.9444 -0.1879 0.2698
vn -0.1879 0.9444 0.2698
vn -0.8006 -0.5350 0.2698
vn -0.5350 -0.8006 0.2698
vn 0.1393 0.7002 -0.7002
vn 0.1879 -0.9444 0.2698
vn -0.8006 0.5350 0.2698
vn 0.5350 -0.8006 0.2698
vn 0.9444 -0.1879 0.2698
vn 0.9444 0.1879 0.2698
vn 0.5350 0.8006 0.2698
vn -0.1879 -0.9444 0.2698
vn 0.1879 0.9444 0.2698
vn 0.1951 0.9808 0.0000
vn -0.1393 0.7002 -0.7002
vn 0.7002 0.1393 -0.7002
vn -0.5936 -0.3966 -0.7002
vn 0.3966 0.5936 -0.7002
vn -0.1393 -0.7002 -0.7002
vn 0.7002 -0.1393 -0.7002
vn 0.5936 -0.3966 -0.7002
vn -0.7002 -0.1393 -0.7002
vn 0.1393 -0.7002 -0.7002
vn 0.3966 -0.5936 -0.7002
vn -0.3966 -0.5936 -0.7002
vn 0.0000 0.0000 1.0000
vn 0.5936 0.3966 -0.7002
vn -0.7002 0.1393 -0.7002
vn -0.5936 0.3966 -0.7002
vn -0.3966 0.5936 -0.7002
vn -0.8315 0.5556 0.0000
vn 0.0000 1.0000 0.0000
vn -0.5556 -0.8315 -0.0000
vn -0.9444 0.1879 0.2698
vn 0.1951 -0.9808 -0.0000
vn -0.9808 -0.1951 -0.0000
vn -1.0000 0.0000 0.0000
usemtl Little_Boy
s 1
f 4/1/1 6/2/1 7/3/1 5/4/1
f 3/5/2 2/6/2 5/4/2 7/3/2
f 151/7/2 142/8/2 141/9/2 140/10/2
f 191/11/3 118/12/3 121/13/3 120/14/3
f 201/15/4 158/16/4 159/17/4 160/18/4
f 169/19/3 170/20/3 171/21/3 168/22/3
f 6/23/5 8/24/5 3/5/5 7/3/5
f 187/25/6 104/26/6 105/27/6 106/28/6
f 150/29/5 15/30/5 16/31/5 17/32/5
f 189/33/7 110/34/7 111/35/7 112/36/7
f 9/37/8 36/38/8 37/39/8 38/40/8
f 11/41/9 50/42/9 23/43/9 51/44/9
f 47/45/10 46/46/10 48/47/10 49/48/10
f 53/49/11 76/50/11 79/51/11 67/52/11
f 29/53/12 28/54/12 30/55/12 31/56/12
f 10/57/13 42/58/13 41/59/13 43/60/13
f 57/61/8 97/62/8 98/63/8 56/64/8
f 25/65/14 24/66/14 26/67/14 27/68/14
f 56/64/15 98/63/15 100/69/15 55/70/15
f 9/37/16 35/71/16 34/72/16 36/38/16
f 42/58/17 40/73/17 39/74/17 41/59/17
f 59/75/18 93/76/18 95/77/18 58/78/18
f 71/79/1 75/80/1 69/81/1 70/82/1
f 35/71/18 33/83/18 32/84/18 34/72/18
f 38/40/15 37/39/15 39/74/15 40/73/15
f 65/85/9 83/86/9 84/87/9 64/88/9
f 55/70/19 54/89/19 41/90/19 39/91/19
f 46/92/20 67/52/20 66/93/20 48/94/20
f 58/78/21 57/61/21 36/95/21 34/96/21
f 23/97/22 64/88/22 63/98/22 24/99/22
f 44/100/23 53/49/23 67/52/23 46/101/23
f 24/102/24 63/98/24 62/103/24 26/104/24
f 26/105/25 62/103/25 60/106/25 28/107/25
f 103/108/26 75/109/26 76/50/26 77/110/26
f 61/111/27 59/75/27 32/112/27 30/113/27
f 48/114/28 66/93/28 65/85/28 50/115/28
f 59/75/29 58/78/29 34/116/29 32/117/29
f 57/61/30 56/64/30 37/118/30 36/119/30
f 56/64/31 55/70/31 39/120/31 37/121/31
f 41/122/32 54/89/32 52/123/32 43/124/32
f 28/125/33 60/106/33 61/126/33 30/127/33
f 44/128/34 43/129/34 52/123/34 53/49/34
f 12/130/5 21/131/5 22/132/5 13/133/5
f 10/57/35 43/60/35 44/134/35 45/135/35
f 190/136/7 113/137/7 114/138/7 115/139/7
f 76/50/36 75/140/36 78/141/36 79/51/36
f 69/142/37 99/143/37 100/69/37 98/63/37
f 85/144/38 87/145/38 88/146/38 86/147/38
f 101/148/39 103/149/39 77/110/39 102/150/39
f 89/151/40 70/152/40 91/153/40 90/154/40
f 96/155/41 69/156/41 98/63/41 97/62/41
f 94/157/42 96/158/42 97/62/42 95/77/42
f 84/87/43 71/159/43 85/160/43 86/147/43
f 70/161/44 92/162/44 93/76/44 91/163/44
f 92/164/45 94/165/45 95/77/45 93/76/45
f 88/146/46 87/166/46 89/167/46 90/154/46
f 11/168/47 25/169/47 9/170/47 10/171/47
f 99/172/48 101/173/48 102/150/48 100/69/48
f 83/86/49 82/174/49 71/175/49 84/87/49
f 81/176/50 80/177/50 82/178/50 83/86/50
f 78/179/51 80/180/51 81/176/51 79/51/51
f 197/181/6 134/182/6 135/183/6 136/184/6
f 49/48/52 48/47/52 50/42/52 11/41/52
f 191/185/53 116/186/53 117/187/53 118/188/53
f 62/103/54 88/146/54 90/154/54 60/106/54
f 91/153/12 61/126/12 60/106/12 90/154/12
f 50/189/55 65/85/55 64/88/55 23/190/55
f 52/123/35 77/110/35 76/50/35 53/49/35
f 61/111/56 91/163/56 93/76/56 59/75/56
f 63/98/14 86/147/14 88/146/14 62/103/14
f 64/88/57 84/87/57 86/147/57 63/98/57
f 51/44/57 23/43/57 24/66/57 25/65/57
f 31/191/56 30/192/56 32/84/56 33/83/56
f 58/78/16 95/77/16 97/62/16 57/61/16
f 194/193/5 125/194/5 126/195/5 127/196/5
f 67/52/10 79/51/10 81/176/10 66/93/10
f 55/70/17 100/69/17 102/150/17 54/89/17
f 151/7/2 143/197/2 144/198/2 142/8/2
f 150/29/53 19/199/53 18/200/53 15/30/53
f 186/201/3 72/202/3 73/203/3 74/204/3
f 123/205/7 122/206/7 120/207/7 121/208/7
f 203/209/2 167/210/2 168/211/2 169/212/2
f 27/68/54 26/67/54 28/54/54 29/53/54
f 54/89/13 102/150/13 77/110/13 52/123/13
f 185/213/58 164/214/58 165/215/58 166/216/58
f 206/217/7 176/218/7 177/219/7 178/220/7
f 195/221/3 128/222/3 129/223/3 130/224/3
f 198/225/7 137/226/7 138/227/7 139/228/7
f 208/229/4 182/230/4 183/231/4 184/232/4
f 45/135/11 44/134/11 46/46/11 47/45/11
f 149/233/58 144/198/58 143/197/58 145/234/58
f 16/31/2 68/235/2 20/236/2 17/32/2
f 202/237/7 161/238/7 171/239/7 170/240/7
f 148/241/53 12/242/53 13/243/53 14/244/53
f 191/245/4 127/246/4 126/247/4 118/248/4
f 168/249/4 166/216/4 185/213/4 169/250/4
f 149/233/58 145/234/58 146/251/58 147/252/58
f 127/196/6 122/253/6 123/254/6 126/195/6
f 188/255/6 107/256/6 108/257/6 109/258/6
f 142/259/47 144/260/47 15/261/47
f 149/262/47 147/263/47 16/264/47
f 22/265/47 141/266/47 18/267/47
f 16/264/47 147/263/47 14/268/47
f 148/269/1 146/270/1 17/271/1
f 145/272/1 143/273/1 150/274/1
f 150/274/1 151/275/1 19/276/1
f 19/276/1 21/277/1 20/278/1
f 22/132/5 21/131/5 140/10/5 141/9/5
f 14/244/53 147/252/53 146/251/53 148/241/53
f 68/279/58 18/200/58 19/199/58 20/280/58
f 193/281/53 122/282/53 123/283/53 124/284/53
f 204/285/58 170/20/58 171/21/58 172/286/58
f 202/287/2 161/288/2 162/289/2 163/290/2
f 192/291/5 119/292/5 120/207/5 121/208/5
f 196/293/4 131/294/4 132/295/4 133/296/4
f 66/93/52 81/176/52 83/86/52 65/85/52
f 205/297/6 173/298/6 174/299/6 175/300/6
f 207/301/3 179/302/3 180/303/3 181/304/3
f 1/305/58 4/306/58 5/4/58 2/6/58
f 199/307/3 152/308/3 153/309/3 154/310/3
f 202/311/6 185/312/6 166/313/6 161/314/6
f 200/315/4 155/316/4 156/317/4 157/318/4
f 11/168/47 51/319/47 25/169/47
f 25/169/47 27/320/47 29/321/47
f 29/321/47 31/322/47 33/323/47
f 33/323/47 35/324/47 29/321/47
f 9/170/47 38/325/47 10/171/47
f 40/326/47 42/327/47 10/171/47
f 10/171/47 45/328/47 11/168/47
f 47/329/47 49/330/47 11/168/47
f 29/321/47 35/324/47 9/170/47
f 38/325/47 40/326/47 10/171/47
f 45/328/47 47/329/47 11/168/47
f 25/169/47 29/321/47 9/170/47
f 71/79/1 82/331/1 80/332/1
f 80/332/1 78/333/1 75/80/1
f 75/80/1 103/334/1 101/335/1
f 101/335/1 99/336/1 69/81/1
f 69/81/1 96/337/1 70/82/1
f 94/338/1 92/339/1 70/82/1
f 70/82/1 89/340/1 87/341/1
f 87/341/1 85/342/1 70/82/1
f 71/79/1 80/332/1 75/80/1
f 75/80/1 101/335/1 69/81/1
f 96/337/1 94/338/1 70/82/1
f 70/82/1 85/342/1 71/79/1
f 15/261/47 18/267/47 142/259/47
f 141/266/47 142/259/47 18/267/47
f 16/264/47 15/261/47 149/262/47
f 144/260/47 149/262/47 15/261/47
f 18/267/47 68/343/47 22/265/47
f 13/344/47 22/265/47 68/343/47
f 14/268/47 13/344/47 68/343/47
f 68/343/47 16/264/47 14/268/47
f 17/271/1 20/278/1 148/269/1
f 12/345/1 148/269/1 20/278/1
f 150/274/1 17/271/1 145/272/1
f 146/270/1 145/272/1 17/271/1
f 140/346/1 19/276/1 151/275/1
f 150/274/1 143/273/1 151/275/1
f 12/345/1 20/278/1 21/277/1
f 19/276/1 140/346/1 21/277/1
f 8/347/47 1/348/47 2/6/47 3/5/47
