# Blender 3.3.1
# www.blender.org
mtllib control_rod_lid.mtl
o Lid
v 0.000000 1.125000 1.000000
v 0.000000 1.250000 1.000000
v 0.000000 1.125000 0.000000
v 0.000000 1.250000 0.000000
v 1.000000 1.125000 1.000000
v 1.000000 1.250000 1.000000
v 1.000000 1.125000 0.000000
v 1.000000 1.250000 0.000000
v 0.125000 1.125000 0.875000
v 0.125000 1.125000 0.625000
v 0.375000 1.125000 0.875000
v 0.375000 1.125000 0.625000
v 0.125000 0.125000 0.875000
v 0.125000 0.125000 0.625000
v 0.375000 0.125000 0.875000
v 0.375000 0.125000 0.625000
v 0.625000 1.125000 0.375000
v 0.625000 1.125000 0.125000
v 0.875000 1.125000 0.375000
v 0.875000 1.125000 0.125000
v 0.625000 0.125000 0.375000
v 0.625000 0.125000 0.125000
v 0.875000 0.125000 0.375000
v 0.875000 0.125000 0.125000
v 0.375000 0.125000 0.125000
v 0.375000 0.125000 0.375000
v 0.125000 0.125000 0.125000
v 0.125000 0.125000 0.375000
v 0.375000 1.125000 0.125000
v 0.375000 1.125000 0.375000
v 0.125000 1.125000 0.125000
v 0.125000 1.125000 0.375000
v 0.625000 1.125000 0.875000
v 0.625000 1.125000 0.625000
v 0.875000 1.125000 0.875000
v 0.875000 1.125000 0.625000
v 0.625000 0.125000 0.875000
v 0.625000 0.125000 0.625000
v 0.875000 0.125000 0.875000
v 0.875000 0.125000 0.625000
vn -1.0000 -0.0000 -0.0000
vn -0.0000 -0.0000 -1.0000
vn 1.0000 -0.0000 -0.0000
vn -0.0000 -0.0000 1.0000
vn -0.0000 -1.0000 -0.0000
vn -0.0000 1.0000 -0.0000
vt 0.000000 1.000000
vt 0.500000 0.062500
vt 0.500000 0.000000
vt 0.500000 0.000000
vt 0.500000 0.062500
vt 0.000000 0.500000
vt 1.000000 0.062500
vt 0.500000 0.062500
vt 0.000000 0.500000
vt 0.500000 0.000000
vt 1.000000 0.000000
vt 0.000000 1.000000
vt 0.500000 0.000000
vt 1.000000 0.000000
vt 0.500000 1.000000
vt 1.000000 0.062500
vt 0.500000 0.500000
vt 0.500000 0.062500
vt 1.000000 0.062500
vt 1.000000 0.000000
vt 0.500000 0.500000
vt 1.000000 0.062500
vt 1.000000 0.000000
vt 0.500000 1.000000
vt 0.625000 1.000000
vt 0.500000 1.000000
vt 0.625000 1.000000
vt 0.500000 1.000000
vt 0.625000 1.000000
vt 0.500000 1.000000
vt 0.625000 1.000000
vt 0.500000 1.000000
vt 0.500000 0.500000
vt 0.625000 0.500000
vt 0.500000 0.500000
vt 0.625000 0.500000
vt 0.625000 0.500000
vt 0.500000 0.500000
vt 0.500000 0.500000
vt 0.625000 0.500000
vt 0.625000 1.000000
vt 0.500000 1.000000
vt 0.625000 1.000000
vt 0.500000 1.000000
vt 0.625000 1.000000
vt 0.500000 1.000000
vt 0.625000 1.000000
vt 0.500000 1.000000
vt 0.500000 0.500000
vt 0.625000 0.500000
vt 0.500000 0.500000
vt 0.625000 0.500000
vt 0.625000 0.500000
vt 0.500000 0.500000
vt 0.500000 0.500000
vt 0.625000 0.500000
vt 0.625000 0.500000
vt 0.500000 0.500000
vt 0.500000 0.500000
vt 0.625000 0.500000
vt 0.625000 0.500000
vt 0.500000 0.500000
vt 0.625000 0.500000
vt 0.500000 0.500000
vt 0.625000 1.000000
vt 0.500000 1.000000
vt 0.625000 1.000000
vt 0.500000 1.000000
vt 0.625000 1.000000
vt 0.500000 1.000000
vt 0.625000 1.000000
vt 0.500000 1.000000
vt 0.625000 1.000000
vt 0.500000 1.000000
vt 0.625000 1.000000
vt 0.500000 1.000000
vt 0.625000 1.000000
vt 0.500000 1.000000
vt 0.625000 1.000000
vt 0.500000 1.000000
vt 0.500000 0.500000
vt 0.625000 0.500000
vt 0.500000 0.500000
vt 0.625000 0.500000
vt 0.625000 0.500000
vt 0.500000 0.500000
vt 0.500000 0.500000
vt 0.625000 0.500000
s 0
usemtl Lid
f 4/11/1 1/2/1 2/4/1
f 8/23/2 3/8/2 4/10/2
f 6/18/3 7/20/3 8/22/3
f 2/5/4 5/14/4 6/16/4
f 3/9/5 5/15/5 1/1/5
f 8/24/6 2/6/6 6/17/6
f 9/26/4 15/37/4 11/29/4
f 10/28/1 13/34/1 9/25/1
f 12/32/2 14/36/2 10/27/2
f 11/30/3 16/40/3 12/31/3
f 17/42/4 23/53/4 19/45/4
f 18/44/1 21/50/1 17/41/1
f 20/48/2 22/52/2 18/43/2
f 19/46/3 24/56/3 20/47/3
f 30/68/3 25/57/3 29/65/3
f 29/66/2 27/61/2 31/69/2
f 31/70/1 28/63/1 32/71/1
f 32/72/4 26/60/4 30/67/4
f 33/74/4 39/85/4 35/77/4
f 34/76/1 37/82/1 33/73/1
f 36/80/2 38/84/2 34/75/2
f 35/78/3 40/88/3 36/79/3
f 4/11/1 3/7/1 1/2/1
f 8/23/2 7/19/2 3/8/2
f 6/18/3 5/13/3 7/20/3
f 2/5/4 1/3/4 5/14/4
f 3/9/5 7/21/5 5/15/5
f 8/24/6 4/12/6 2/6/6
f 9/26/4 13/33/4 15/37/4
f 10/28/1 14/35/1 13/34/1
f 12/32/2 16/39/2 14/36/2
f 11/30/3 15/38/3 16/40/3
f 17/42/4 21/49/4 23/53/4
f 18/44/1 22/51/1 21/50/1
f 20/48/2 24/55/2 22/52/2
f 19/46/3 23/54/3 24/56/3
f 30/68/3 26/59/3 25/57/3
f 29/66/2 25/58/2 27/61/2
f 31/70/1 27/62/1 28/63/1
f 32/72/4 28/64/4 26/60/4
f 33/74/4 37/81/4 39/85/4
f 34/76/1 38/83/1 37/82/1
f 36/80/2 40/87/2 38/84/2
f 35/78/3 39/86/3 40/88/3
