# Blender 3.3.1
# www.blender.org
mtllib lid.mtl
o Lid
v 0.000000 1.125000 1.000000
v 0.000000 1.250000 1.000000
v 0.000000 1.125000 0.000000
v 0.000000 1.250000 0.000000
v 1.000000 1.125000 1.000000
v 1.000000 1.250000 1.000000
v 1.000000 1.125000 0.000000
v 1.000000 1.250000 0.000000
v 0.125000 1.125000 0.125000
v 0.125000 1.125000 0.875000
v 0.875000 1.125000 0.125000
v 0.875000 1.125000 0.875000
v 0.125000 1.000000 0.125000
v 0.125000 1.000000 0.875000
v 0.875000 1.000000 0.125000
v 0.875000 1.000000 0.875000
vn -1.0000 -0.0000 -0.0000
vn -0.0000 -0.0000 -1.0000
vn 1.0000 -0.0000 -0.0000
vn -0.0000 -0.0000 1.0000
vn -0.0000 -1.0000 -0.0000
vn -0.0000 1.0000 -0.0000
vt 0.562500 1.000000
vt 0.562500 0.500000
vt 0.500000 0.500000
vt 0.500000 1.000000
vt 0.500000 0.500000
vt 0.000000 0.500000
vt 0.562500 1.000000
vt 0.562500 0.500000
vt 0.500000 1.000000
vt 0.500000 0.500000
vt 0.500000 1.000000
vt 0.000100 0.999900
vt 0.562500 1.000000
vt 0.562500 0.500000
vt 0.000000 0.500000
vt 0.500000 1.000000
vt 0.500000 0.500000
vt 0.562500 1.000000
vt 0.562500 0.500000
vt 0.000000 1.000000
vt 0.500000 0.500000
vt 0.500000 1.000000
vt 0.500000 1.000000
vt 0.437500 0.937500
vt 0.500000 0.500000
vt 0.500000 1.000000
vt 0.500000 0.500000
vt 0.437500 0.562500
vt 0.500000 1.000000
vt 0.062500 0.937500
vt 0.500000 0.500000
vt 0.500000 1.000000
vt 0.062500 0.562500
vt 0.500000 0.500000
vt 0.062500 0.562500
vt 0.562500 1.000000
vt 0.562500 0.500000
vt 0.562500 0.500000
vt 0.062500 0.937500
vt 0.562500 1.000000
vt 0.437500 0.562500
vt 0.562500 0.500000
vt 0.562500 1.000000
vt 0.562500 1.000000
vt 0.437500 0.937500
vt 0.562500 0.500000
s 0
usemtl Lid
f 2/4/1 3/8/1 1/1/1
f 4/11/2 7/19/2 3/7/2
f 8/22/3 5/14/3 7/18/3
f 6/16/4 1/2/4 5/13/4
f 7/20/5 9/24/5 3/9/5
f 4/12/6 6/17/6 8/22/6
f 10/27/4 16/44/4 12/32/4
f 3/9/5 10/28/5 1/3/5
f 5/15/5 11/30/5 7/20/5
f 1/3/5 12/33/5 5/15/5
f 15/41/5 14/39/5 13/35/5
f 11/31/2 13/36/2 9/23/2
f 12/34/3 15/43/3 11/29/3
f 9/25/1 14/40/1 10/26/1
f 2/4/1 4/10/1 3/8/1
f 4/11/2 8/21/2 7/19/2
f 8/22/3 6/17/3 5/14/3
f 6/16/4 2/5/4 1/2/4
f 7/20/5 11/30/5 9/24/5
f 4/12/6 2/6/6 6/17/6
f 10/27/4 14/38/4 16/44/4
f 3/9/5 9/24/5 10/28/5
f 5/15/5 12/33/5 11/30/5
f 1/3/5 10/28/5 12/33/5
f 15/41/5 16/45/5 14/39/5
f 11/31/2 15/42/2 13/36/2
f 12/34/3 16/46/3 15/43/3
f 9/25/1 13/37/1 14/40/1
