# Blender 3.3.1
# www.blender.org
mtllib rods.mtl
o Rods
v 0.125100 -0.000000 0.812500
v 0.125100 -0.000000 0.687500
v 0.187600 -0.000000 0.875000
v 0.187600 -0.000000 0.625000
v 0.312600 -0.000000 0.875000
v 0.312600 -0.000000 0.625000
v 0.375100 -0.000000 0.812500
v 0.375100 -0.000000 0.687500
v 0.125100 1.000000 0.812500
v 0.187600 1.000000 0.875000
v 0.125100 1.000000 0.687500
v 0.187600 1.000000 0.625000
v 0.312600 1.000000 0.875000
v 0.312600 1.000000 0.625000
v 0.375100 1.000000 0.812500
v 0.375100 1.000000 0.687500
v 0.125100 0.000000 0.312500
v 0.125100 0.000000 0.187500
v 0.187600 0.000000 0.375000
v 0.187600 0.000000 0.125000
v 0.312600 0.000000 0.375000
v 0.312600 0.000000 0.125000
v 0.375100 0.000000 0.312500
v 0.375100 0.000000 0.187500
v 0.125100 1.000000 0.312500
v 0.187600 1.000000 0.375000
v 0.125100 1.000000 0.187500
v 0.187600 1.000000 0.125000
v 0.312600 1.000000 0.375000
v 0.312600 1.000000 0.125000
v 0.375100 1.000000 0.312500
v 0.375100 1.000000 0.187500
v 0.625100 0.000000 0.312500
v 0.625100 0.000000 0.187500
v 0.687600 0.000000 0.375000
v 0.687600 0.000000 0.125000
v 0.812600 0.000000 0.375000
v 0.812600 0.000000 0.125000
v 0.875100 0.000000 0.312500
v 0.875100 0.000000 0.187500
v 0.625100 1.000000 0.312500
v 0.687600 1.000000 0.375000
v 0.625100 1.000000 0.187500
v 0.687600 1.000000 0.125000
v 0.812600 1.000000 0.375000
v 0.812600 1.000000 0.125000
v 0.875100 1.000000 0.312500
v 0.875100 1.000000 0.187500
v 0.625100 -0.000000 0.812500
v 0.625100 -0.000000 0.687500
v 0.687600 -0.000000 0.875000
v 0.687600 -0.000000 0.625000
v 0.812600 -0.000000 0.875000
v 0.812600 -0.000000 0.625000
v 0.875100 -0.000000 0.812500
v 0.875100 -0.000000 0.687500
v 0.625100 1.000000 0.812500
v 0.687600 1.000000 0.875000
v 0.625100 1.000000 0.687500
v 0.687600 1.000000 0.625000
v 0.812600 1.000000 0.875000
v 0.812600 1.000000 0.625000
v 0.875100 1.000000 0.812500
v 0.875100 1.000000 0.687500
vn -0.0000 -1.0000 -0.0000
vn -0.0000 1.0000 -0.0000
vn -0.7071 -0.0000 0.7071
vn 0.7071 -0.0000 -0.7071
vn 1.0000 -0.0000 -0.0000
vn -0.0000 -0.0000 1.0000
vn -1.0000 -0.0000 -0.0000
vn 0.7071 -0.0000 0.7071
vn -0.0000 -0.0000 -1.0000
vn -0.7071 -0.0000 -0.7071
vt 0.562500 0.500000
vt 0.750000 1.000000
vt 0.656250 0.500000
vt 0.687500 1.000000
vt 0.593750 0.500000
vt 0.781250 0.968750
vt 0.593750 0.500000
vt 0.562500 0.500000
vt 0.656250 0.968750
vt 0.656250 0.500000
vt 0.562500 0.500000
vt 0.781250 0.906250
vt 0.656250 0.500000
vt 0.656250 0.906250
vt 0.593750 0.500000
vt 0.750000 0.875000
vt 0.593750 0.500000
vt 0.562500 0.500000
vt 0.687500 0.875000
vt 0.656250 0.500000
vt 0.687500 1.000000
vt 0.562500 1.000000
vt 0.656250 1.000000
vt 0.656250 0.968750
vt 0.593750 1.000000
vt 0.750000 1.000000
vt 0.593750 1.000000
vt 0.781250 0.968750
vt 0.656250 1.000000
vt 0.562500 1.000000
vt 0.656250 0.906250
vt 0.656250 1.000000
vt 0.562500 1.000000
vt 0.781250 0.906250
vt 0.593750 1.000000
vt 0.687500 0.875000
vt 0.593750 1.000000
vt 0.750000 0.875000
vt 0.562500 1.000000
vt 0.656250 1.000000
vt 0.562500 0.500000
vt 0.750000 1.000000
vt 0.656250 0.500000
vt 0.687500 1.000000
vt 0.593750 0.500000
vt 0.781250 0.968750
vt 0.593750 0.500000
vt 0.562500 0.500000
vt 0.656250 0.968750
vt 0.656250 0.500000
vt 0.562500 0.500000
vt 0.781250 0.906250
vt 0.656250 0.500000
vt 0.656250 0.906250
vt 0.593750 0.500000
vt 0.750000 0.875000
vt 0.593750 0.500000
vt 0.562500 0.500000
vt 0.687500 0.875000
vt 0.656250 0.500000
vt 0.687500 1.000000
vt 0.562500 1.000000
vt 0.656250 1.000000
vt 0.656250 0.968750
vt 0.593750 1.000000
vt 0.750000 1.000000
vt 0.593750 1.000000
vt 0.781250 0.968750
vt 0.656250 1.000000
vt 0.562500 1.000000
vt 0.656250 0.906250
vt 0.656250 1.000000
vt 0.562500 1.000000
vt 0.781250 0.906250
vt 0.593750 1.000000
vt 0.687500 0.875000
vt 0.593750 1.000000
vt 0.750000 0.875000
vt 0.562500 1.000000
vt 0.656250 1.000000
vt 0.562500 0.500000
vt 0.750000 1.000000
vt 0.656250 0.500000
vt 0.687500 1.000000
vt 0.593750 0.500000
vt 0.781250 0.968750
vt 0.593750 0.500000
vt 0.562500 0.500000
vt 0.656250 0.968750
vt 0.656250 0.500000
vt 0.562500 0.500000
vt 0.781250 0.906250
vt 0.656250 0.500000
vt 0.656250 0.906250
vt 0.593750 0.500000
vt 0.750000 0.875000
vt 0.593750 0.500000
vt 0.562500 0.500000
vt 0.687500 0.875000
vt 0.656250 0.500000
vt 0.687500 1.000000
vt 0.562500 1.000000
vt 0.656250 1.000000
vt 0.656250 0.968750
vt 0.593750 1.000000
vt 0.750000 1.000000
vt 0.593750 1.000000
vt 0.781250 0.968750
vt 0.656250 1.000000
vt 0.562500 1.000000
vt 0.656250 0.906250
vt 0.656250 1.000000
vt 0.562500 1.000000
vt 0.781250 0.906250
vt 0.593750 1.000000
vt 0.687500 0.875000
vt 0.593750 1.000000
vt 0.750000 0.875000
vt 0.562500 1.000000
vt 0.656250 1.000000
vt 0.562500 0.500000
vt 0.750000 1.000000
vt 0.656250 0.500000
vt 0.687500 1.000000
vt 0.593750 0.500000
vt 0.781250 0.968750
vt 0.593750 0.500000
vt 0.562500 0.500000
vt 0.656250 0.968750
vt 0.656250 0.500000
vt 0.562500 0.500000
vt 0.781250 0.906250
vt 0.656250 0.500000
vt 0.656250 0.906250
vt 0.593750 0.500000
vt 0.750000 0.875000
vt 0.593750 0.500000
vt 0.562500 0.500000
vt 0.687500 0.875000
vt 0.656250 0.500000
vt 0.687500 1.000000
vt 0.562500 1.000000
vt 0.656250 1.000000
vt 0.656250 0.968750
vt 0.593750 1.000000
vt 0.750000 1.000000
vt 0.593750 1.000000
vt 0.781250 0.968750
vt 0.656250 1.000000
vt 0.562500 1.000000
vt 0.656250 0.906250
vt 0.656250 1.000000
vt 0.562500 1.000000
vt 0.781250 0.906250
vt 0.593750 1.000000
vt 0.687500 0.875000
vt 0.593750 1.000000
vt 0.750000 0.875000
vt 0.562500 1.000000
vt 0.656250 1.000000
s 0
usemtl Rods
f 4/9/1 8/19/1 5/12/1
f 16/38/2 12/28/2 9/21/2
f 3/7/3 9/22/3 1/1/3
f 6/15/4 16/39/4 8/18/4
f 8/20/5 15/37/5 7/17/5
f 5/13/6 10/25/6 3/7/6
f 1/3/7 11/27/7 2/5/7
f 7/17/8 13/33/8 5/11/8
f 4/10/9 14/35/9 6/15/9
f 2/5/10 12/30/10 4/8/10
f 20/49/1 24/59/1 21/52/1
f 32/78/2 28/68/2 25/61/2
f 19/47/3 25/62/3 17/41/3
f 22/55/4 32/79/4 24/58/4
f 24/60/5 31/77/5 23/57/5
f 21/53/6 26/65/6 19/47/6
f 17/43/7 27/67/7 18/45/7
f 23/57/8 29/73/8 21/51/8
f 20/50/9 30/75/9 22/55/9
f 18/45/10 28/70/10 20/48/10
f 36/89/1 40/99/1 37/92/1
f 48/118/2 44/108/2 41/101/2
f 35/87/3 41/102/3 33/81/3
f 38/95/4 48/119/4 40/98/4
f 40/100/5 47/117/5 39/97/5
f 37/93/6 42/105/6 35/87/6
f 33/83/7 43/107/7 34/85/7
f 39/97/8 45/113/8 37/91/8
f 36/90/9 46/115/9 38/95/9
f 34/85/10 44/110/10 36/88/10
f 52/129/1 56/139/1 53/132/1
f 64/158/2 60/148/2 57/141/2
f 51/127/3 57/142/3 49/121/3
f 54/135/4 64/159/4 56/138/4
f 56/140/5 63/157/5 55/137/5
f 53/133/6 58/145/6 51/127/6
f 49/123/7 59/147/7 50/125/7
f 55/137/8 61/153/8 53/131/8
f 52/130/9 62/155/9 54/135/9
f 50/125/10 60/150/10 52/128/10
f 5/12/1 3/6/1 1/2/1
f 1/2/1 2/4/1 4/9/1
f 4/9/1 6/14/1 8/19/1
f 8/19/1 7/16/1 5/12/1
f 5/12/1 1/2/1 4/9/1
f 9/21/2 10/24/2 13/31/2
f 13/31/2 15/36/2 16/38/2
f 16/38/2 14/34/2 12/28/2
f 12/28/2 11/26/2 9/21/2
f 9/21/2 13/31/2 16/38/2
f 3/7/3 10/25/3 9/22/3
f 6/15/4 14/35/4 16/39/4
f 8/20/5 16/40/5 15/37/5
f 5/13/6 13/32/6 10/25/6
f 1/3/7 9/23/7 11/27/7
f 7/17/8 15/37/8 13/33/8
f 4/10/9 12/29/9 14/35/9
f 2/5/10 11/27/10 12/30/10
f 21/52/1 19/46/1 17/42/1
f 17/42/1 18/44/1 20/49/1
f 20/49/1 22/54/1 24/59/1
f 24/59/1 23/56/1 21/52/1
f 21/52/1 17/42/1 20/49/1
f 25/61/2 26/64/2 29/71/2
f 29/71/2 31/76/2 32/78/2
f 32/78/2 30/74/2 28/68/2
f 28/68/2 27/66/2 25/61/2
f 25/61/2 29/71/2 32/78/2
f 19/47/3 26/65/3 25/62/3
f 22/55/4 30/75/4 32/79/4
f 24/60/5 32/80/5 31/77/5
f 21/53/6 29/72/6 26/65/6
f 17/43/7 25/63/7 27/67/7
f 23/57/8 31/77/8 29/73/8
f 20/50/9 28/69/9 30/75/9
f 18/45/10 27/67/10 28/70/10
f 37/92/1 35/86/1 33/82/1
f 33/82/1 34/84/1 36/89/1
f 36/89/1 38/94/1 40/99/1
f 40/99/1 39/96/1 37/92/1
f 37/92/1 33/82/1 36/89/1
f 41/101/2 42/104/2 45/111/2
f 45/111/2 47/116/2 48/118/2
f 48/118/2 46/114/2 44/108/2
f 44/108/2 43/106/2 41/101/2
f 41/101/2 45/111/2 48/118/2
f 35/87/3 42/105/3 41/102/3
f 38/95/4 46/115/4 48/119/4
f 40/100/5 48/120/5 47/117/5
f 37/93/6 45/112/6 42/105/6
f 33/83/7 41/103/7 43/107/7
f 39/97/8 47/117/8 45/113/8
f 36/90/9 44/109/9 46/115/9
f 34/85/10 43/107/10 44/110/10
f 53/132/1 51/126/1 49/122/1
f 49/122/1 50/124/1 52/129/1
f 52/129/1 54/134/1 56/139/1
f 56/139/1 55/136/1 53/132/1
f 53/132/1 49/122/1 52/129/1
f 57/141/2 58/144/2 61/151/2
f 61/151/2 63/156/2 64/158/2
f 64/158/2 62/154/2 60/148/2
f 60/148/2 59/146/2 57/141/2
f 57/141/2 61/151/2 64/158/2
f 51/127/3 58/145/3 57/142/3
f 54/135/4 62/155/4 64/159/4
f 56/140/5 64/160/5 63/157/5
f 53/133/6 61/152/6 58/145/6
f 49/123/7 57/143/7 59/147/7
f 55/137/8 63/157/8 61/153/8
f 52/130/9 60/149/9 62/155/9
f 50/125/10 59/147/10 60/150/10
