# Blender v2.91.2 OBJ File: ''
# www.blender.org
mtllib anvil.mtl
o Back
v 0.750000 0.062500 0.875000
v 0.250000 -0.000000 0.875000
v 0.750000 -0.000000 0.875000
v 0.750000 0.062500 0.750000
v 0.312500 0.125000 0.687500
v 0.250000 0.062500 0.750000
v 0.625000 0.187500 0.625000
v 0.687500 0.125000 0.687500
v 0.375000 0.312500 0.625000
v 0.375000 0.187500 0.625000
v 0.625000 0.312500 0.625000
v 0.375000 0.437500 0.750000
v 0.625000 0.562500 1.125000
v 0.375000 0.688500 1.125000
v 0.375000 0.562500 1.125000
v 0.250000 0.062500 0.875000
v 0.625000 0.437500 0.750000
v 0.625000 0.688500 1.125000
vt 0.750000 0.187500
vt 0.250000 0.125000
vt 0.750000 0.125000
vt 0.750000 0.187500
vt 0.312500 0.250000
vt 0.250000 0.187500
vt 0.625000 0.312500
vt 0.687500 0.250000
vt 0.375000 0.437500
vt 0.375000 0.312500
vt 0.500000 0.625000
vt 0.375000 0.375000
vt 0.500000 0.375000
vt 0.625000 0.687500
vt 0.375000 0.812500
vt 0.375000 0.687500
vt 0.250000 0.187500
vt 0.625000 0.437500
vt 0.375000 0.625000
vt 0.625000 0.812500
vn 0.0000 0.0000 1.0000
vn 0.0000 0.7071 0.7071
vn 0.0000 -0.7071 0.7071
usemtl Anvil
s 1
f 1/1/1 2/2/1 3/3/1
f 4/4/2 5/5/2 6/6/2
f 7/7/2 5/5/2 8/8/2
f 7/7/1 9/9/1 10/10/1
f 11/11/3 12/12/3 9/13/3
f 13/14/1 14/15/1 15/16/1
f 1/1/1 16/17/1 2/2/1
f 4/4/2 8/8/2 5/5/2
f 7/7/2 10/10/2 5/5/2
f 7/7/1 11/18/1 9/9/1
f 11/11/3 17/19/3 12/12/3
f 13/14/1 18/20/1 14/15/1
o Bottom
v 0.687500 -0.000000 0.687500
v 0.312500 0.000000 0.312500
v 0.687500 0.000000 0.312500
v 0.250000 -0.000000 0.750000
v 0.312500 -0.000000 0.687500
v 0.250000 -0.000000 0.875000
v 0.750000 -0.000000 0.750000
v 0.750000 -0.000000 0.875000
v 0.375000 0.437500 0.312500
v 0.625000 0.437500 0.125000
v 0.625000 0.437500 0.312500
v 0.625000 0.437500 0.750000
v 0.375000 0.562500 1.125000
v 0.375000 0.437500 0.750000
v 0.406250 0.468750 0.125000
v 0.593750 0.468750 0.000000
v 0.593750 0.468750 0.125000
v 0.500000 0.496875 -0.187500
v 0.566291 0.496209 0.000000
v 0.500000 0.468750 0.000000
v 0.433709 0.496209 0.000000
v 0.500000 0.656250 -0.437500
v 0.556348 0.520215 -0.187500
v 0.443652 0.520215 -0.187500
v 0.750000 0.000000 0.250000
v 0.750000 0.000000 0.125000
v 0.250000 0.000000 0.250000
v 0.250000 0.000000 0.125000
v 0.375000 0.437500 0.125000
v 0.625000 0.562500 1.125000
v 0.406250 0.468750 0.000000
vt 0.312500 0.687500
vt 0.687500 0.312500
vt 0.687500 0.687500
vt 0.250000 0.250000
vt 0.312500 0.312500
vt 0.125000 0.250000
vt 0.250000 0.750000
vt 0.125000 0.750000
vt 0.812500 0.375000
vt 1.000000 0.625000
vt 0.812500 0.625000
vt 0.375000 0.625000
vt 0.000000 0.375000
vt 0.375000 0.375000
vt 0.937500 0.625000
vt 0.812500 0.437500
vt 0.937500 0.437500
vt 0.500000 0.250000
vt 0.312500 0.312500
vt 0.312500 0.250000
vt 0.312500 0.687500
vt 0.500000 0.750000
vt 0.312500 0.750000
vt 0.750000 0.312500
vt 0.500000 0.312500
vt 0.500000 0.687500
vt 0.750000 0.687500
vt 0.750000 0.750000
vt 0.875000 0.750000
vt 0.750000 0.250000
vt 0.875000 0.250000
vt 1.000000 0.375000
vt 0.000000 0.625000
vt 0.812500 0.625000
vn 0.0000 -1.0000 -0.0000
vn 0.0000 -0.9487 0.3162
vn 0.3791 -0.9151 -0.1373
vn -0.3791 -0.9151 -0.1373
vn 0.3297 -0.7961 -0.5075
vn -0.3297 -0.7961 -0.5075
usemtl Anvil
s 1
f 19/21/4 20/22/4 21/23/4
f 19/21/4 22/24/4 23/25/4
f 24/26/4 25/27/4 26/28/4
f 27/29/4 28/30/4 29/31/4
f 30/32/5 31/33/5 32/34/5
f 33/35/4 34/36/4 35/37/4
f 36/38/6 37/39/6 38/40/6
f 39/41/7 36/42/7 38/43/7
f 36/38/8 40/44/8 41/45/8
f 42/46/9 40/47/9 36/42/9
f 20/22/4 43/48/4 21/23/4
f 44/49/4 45/50/4 46/51/4
f 19/21/4 23/25/4 20/22/4
f 19/21/4 25/27/4 22/24/4
f 24/26/4 22/24/4 25/27/4
f 27/29/4 47/52/4 28/30/4
f 30/32/5 48/53/5 31/33/5
f 33/35/4 49/54/4 34/36/4
f 36/38/6 41/45/6 37/39/6
f 39/41/7 42/46/7 36/42/7
f 20/22/4 45/50/4 43/48/4
f 44/49/4 43/48/4 45/50/4
o Top
v 0.750000 0.062500 0.750000
v 0.250000 0.062500 0.875000
v 0.750000 0.062500 0.875000
v 0.250000 0.062500 0.125000
v 0.750000 0.062500 0.250000
v 0.750000 0.062500 0.125000
v 0.375000 0.687500 0.125000
v 0.625000 0.688500 1.125000
v 0.625000 0.687500 0.125000
v 0.593750 0.656250 0.125000
v 0.406250 0.656250 0.000000
v 0.406250 0.656250 0.125000
v 0.500000 0.656250 0.000000
v 0.443652 0.632910 -0.187500
v 0.433709 0.628791 0.000000
v 0.556348 0.632910 -0.187500
v 0.566291 0.628791 0.000000
v 0.500000 0.656250 -0.437500
v 0.500000 0.656250 -0.187500
v 0.250000 0.062500 0.750000
v 0.250000 0.062500 0.250000
v 0.375000 0.688500 1.125000
v 0.593750 0.656250 0.000000
vt 0.375000 0.250000
vt 0.250000 0.750000
vt 0.250000 0.250000
vt 1.000000 0.750000
vt 0.875000 0.250000
vt 1.000000 0.250000
vt 1.000000 0.625000
vt 0.000000 0.375000
vt 1.000000 0.375000
vt 0.812500 0.437500
vt 0.937500 0.625000
vt 0.812500 0.625000
vt 0.312500 0.500000
vt 0.500000 0.562500
vt 0.312500 0.562500
vt 0.500000 0.437500
vt 0.312500 0.437500
vt 0.750000 0.500000
vt 0.500000 0.500000
vt 0.375000 0.750000
vt 0.875000 0.750000
vt 0.000000 0.625000
vt 0.937500 0.437500
vn 0.0000 1.0000 0.0000
vn 0.0000 1.0000 -0.0010
vn -0.3827 0.9239 0.0000
vn 0.3827 0.9239 0.0000
usemtl Anvil
s 1
f 50/55/10 51/56/10 52/57/10
f 53/58/10 54/59/10 55/60/10
f 56/61/11 57/62/11 58/63/11
f 59/64/10 60/65/10 61/66/10
f 62/67/12 63/68/12 64/69/12
f 65/70/13 62/67/13 66/71/13
f 65/70/13 67/72/13 68/73/13
f 68/73/12 67/72/12 63/68/12
f 50/55/10 69/74/10 51/56/10
f 53/58/10 70/75/10 54/59/10
f 56/61/11 71/76/11 57/62/11
f 59/64/10 72/77/10 60/65/10
f 62/67/12 68/73/12 63/68/12
f 65/70/13 68/73/13 62/67/13
o Left
v 0.250000 0.000000 0.250000
v 0.250000 0.062500 0.125000
v 0.250000 0.000000 0.125000
v 0.250000 0.062500 0.875000
v 0.250000 -0.000000 0.750000
v 0.250000 -0.000000 0.875000
v 0.250000 0.062500 0.750000
v 0.312500 -0.000000 0.687500
v 0.250000 0.062500 0.250000
v 0.312500 0.000000 0.312500
v 0.312500 0.125000 0.312500
v 0.312500 0.125000 0.687500
v 0.375000 0.187500 0.375000
v 0.375000 0.312500 0.625000
v 0.375000 0.187500 0.625000
v 0.375000 0.375000 0.375000
v 0.375000 0.437500 0.750000
v 0.375000 0.437500 0.312500
v 0.375000 0.437500 0.125000
v 0.375000 0.687500 0.125000
v 0.375000 0.688500 1.125000
v 0.375000 0.562500 1.125000
v 0.406250 0.656250 0.125000
v 0.406250 0.468750 0.000000
v 0.406250 0.468750 0.125000
v 0.406250 0.562500 0.000000
v 0.443652 0.520215 -0.187500
v 0.433709 0.496209 0.000000
v 0.433709 0.628791 0.000000
v 0.420313 0.576563 -0.187500
v 0.500000 0.656250 -0.437500
v 0.443652 0.632910 -0.187500
v 0.406250 0.656250 0.000000
vt 0.875000 0.125000
vt 1.000000 0.187500
vt 1.000000 0.125000
vt 0.187500 0.187500
vt 0.312500 0.125000
vt 0.187500 0.125000
vt 0.312500 0.187500
vt 0.437500 0.125000
vt 0.875000 0.187500
vt 0.812500 0.125000
vt 0.812500 0.250000
vt 0.437500 0.250000
vt 0.750000 0.312500
vt 0.500000 0.437500
vt 0.500000 0.312500
vt 0.750000 0.500000
vt 0.375000 0.562500
vt 0.812500 0.562500
vt 1.000000 0.562500
vt 1.000000 0.812500
vt 0.000000 0.812500
vt 0.000000 0.687500
vt 0.875000 0.812500
vt 1.000000 0.625000
vt 0.875000 0.625000
vt 0.312500 0.625000
vt 0.500000 0.562500
vt 0.312500 0.562500
vt 0.312500 0.687500
vt 0.500000 0.625000
vt 0.750000 0.625000
vt 0.500000 0.687500
vt 0.750000 0.687500
vt 1.000000 0.812500
vn -1.0000 0.0000 0.0000
vn -0.7071 0.0000 -0.7071
vn -0.7071 0.0000 0.7071
vn -0.7071 0.7071 0.0000
vn -0.9195 -0.3809 -0.0975
vn -0.9231 0.3824 -0.0406
vn -0.8529 -0.3533 -0.3845
vn -0.9104 0.3771 -0.1700
vn -0.9195 -0.3808 -0.0975
usemtl Anvil
s 1
f 73/78/14 74/79/14 75/80/14
f 76/81/14 77/82/14 78/83/14
f 79/84/15 80/85/15 77/82/15
f 81/86/16 82/87/16 83/88/16
f 83/88/14 80/85/14 84/89/14
f 84/89/17 85/90/17 83/88/17
f 86/91/14 85/90/14 87/92/14
f 88/93/14 89/94/14 90/95/14
f 91/96/14 90/95/14 92/97/14
f 92/97/14 89/94/14 93/98/14
f 94/99/14 93/98/14 89/94/14
f 95/100/14 96/101/14 97/102/14
f 98/103/18 99/104/18 100/105/18
f 101/106/19 102/107/19 98/103/19
f 102/107/20 103/108/20 99/104/20
f 104/109/21 103/110/21 102/107/21
f 73/78/14 81/86/14 74/79/14
f 76/81/14 79/84/14 77/82/14
f 79/84/15 84/89/15 80/85/15
f 81/86/16 73/78/16 82/87/16
f 83/88/14 82/87/14 80/85/14
f 84/89/17 87/92/17 85/90/17
f 86/91/14 88/93/14 85/90/14
f 88/93/14 86/91/14 89/94/14
f 92/97/14 90/95/14 89/94/14
f 95/100/14 105/111/14 96/101/14
f 98/103/22 102/107/22 99/104/22
f 101/106/19 104/109/19 102/107/19
o Right
v 0.750000 0.062500 0.750000
v 0.750000 -0.000000 0.875000
v 0.750000 -0.000000 0.750000
v 0.750000 0.000000 0.125000
v 0.750000 0.062500 0.250000
v 0.750000 0.000000 0.250000
v 0.687500 -0.000000 0.687500
v 0.687500 0.125000 0.687500
v 0.687500 0.000000 0.312500
v 0.687500 0.125000 0.312500
v 0.625000 0.187500 0.625000
v 0.625000 0.187500 0.375000
v 0.625000 0.312500 0.625000
v 0.625000 0.437500 0.750000
v 0.625000 0.375000 0.375000
v 0.625000 0.437500 0.312500
v 0.625000 0.437500 0.125000
v 0.625000 0.687500 0.125000
v 0.625000 0.688500 1.125000
v 0.625000 0.562500 1.125000
v 0.593750 0.468750 0.125000
v 0.593750 0.656250 0.000000
v 0.593750 0.656250 0.125000
v 0.556348 0.520215 -0.187500
v 0.593750 0.562500 0.000000
v 0.566291 0.496209 0.000000
v 0.579687 0.576563 -0.187500
v 0.566291 0.628791 0.000000
v 0.500000 0.656250 -0.437500
v 0.556348 0.632910 -0.187500
v 0.750000 0.062500 0.875000
v 0.750000 0.062500 0.125000
v 0.593750 0.468750 0.000000
vt 0.375000 0.187500
vt 0.250000 0.125000
vt 0.375000 0.125000
vt 1.000000 0.125000
vt 0.875000 0.187500
vt 0.875000 0.125000
vt 0.437500 0.125000
vt 0.437500 0.250000
vt 0.812500 0.125000
vt 0.812500 0.250000
vt 0.500000 0.312500
vt 0.750000 0.312500
vt 0.500000 0.437500
vt 0.375000 0.562500
vt 0.750000 0.500000
vt 0.812500 0.562500
vt 1.000000 0.562500
vt 1.000000 0.812500
vt 0.000000 0.812500
vt 0.000000 0.687500
vt 0.812500 0.625000
vt 0.937500 0.812500
vt 0.812500 0.812500
vt 0.500000 0.312500
vt 0.312500 0.375000
vt 0.312500 0.312500
vt 0.500000 0.375000
vt 0.312500 0.437500
vt 0.750000 0.437500
vt 0.500000 0.437500
vt 0.750000 0.375000
vt 0.250000 0.187500
vt 1.000000 0.187500
vt 0.937500 0.625000
vn 1.0000 0.0000 0.0000
vn 0.7071 0.0000 -0.7071
vn 0.7071 0.0000 0.7071
vn 0.7071 0.7071 0.0000
vn 0.9195 -0.3809 -0.0975
vn 0.9231 0.3824 -0.0406
vn 0.9104 0.3771 -0.1700
vn 0.8529 -0.3533 -0.3845
vn 0.9195 -0.3808 -0.0975
usemtl Anvil
s 1
f 106/112/23 107/113/23 108/114/23
f 109/115/23 110/116/23 111/117/23
f 106/112/24 112/118/24 113/119/24
f 110/116/25 114/120/25 111/117/25
f 114/120/23 113/119/23 112/118/23
f 115/121/26 116/122/26 113/119/26
f 117/123/23 118/124/23 116/122/23
f 119/125/23 120/126/23 121/127/23
f 122/128/23 123/129/23 121/127/23
f 119/125/23 123/129/23 124/130/23
f 119/125/23 124/130/23 125/131/23
f 126/132/23 127/133/23 128/134/23
f 129/135/27 130/136/27 131/137/27
f 132/138/28 133/139/28 130/136/28
f 132/138/29 134/140/29 135/141/29
f 129/135/30 134/142/30 132/138/30
f 106/112/23 136/143/23 107/113/23
f 109/115/23 137/144/23 110/116/23
f 106/112/24 108/114/24 112/118/24
f 110/116/25 115/121/25 114/120/25
f 114/120/23 115/121/23 113/119/23
f 115/121/26 117/123/26 116/122/26
f 117/123/23 120/126/23 118/124/23
f 119/125/23 118/124/23 120/126/23
f 119/125/23 121/127/23 123/129/23
f 126/132/23 138/145/23 127/133/23
f 129/135/31 132/138/31 130/136/31
f 132/138/28 135/141/28 133/139/28
o Front
v 0.250000 0.000000 0.125000
v 0.750000 0.062500 0.125000
v 0.750000 0.000000 0.125000
v 0.250000 0.062500 0.250000
v 0.687500 0.125000 0.312500
v 0.750000 0.062500 0.250000
v 0.312500 0.125000 0.312500
v 0.625000 0.187500 0.375000
v 0.375000 0.187500 0.375000
v 0.625000 0.375000 0.375000
v 0.375000 0.375000 0.375000
v 0.625000 0.437500 0.312500
v 0.375000 0.437500 0.125000
v 0.625000 0.687500 0.125000
v 0.625000 0.437500 0.125000
v 0.406250 0.468750 0.000000
v 0.593750 0.656250 0.000000
v 0.593750 0.468750 0.000000
v 0.250000 0.062500 0.125000
v 0.375000 0.437500 0.312500
v 0.375000 0.687500 0.125000
v 0.406250 0.656250 0.000000
vt 0.250000 0.187500
vt 0.750000 0.125000
vt 0.750000 0.187500
vt 0.750000 0.187500
vt 0.312500 0.250000
vt 0.250000 0.187500
vt 0.687500 0.250000
vt 0.375000 0.312500
vt 0.625000 0.312500
vt 0.375000 0.500000
vt 0.625000 0.500000
vt 0.375000 0.562500
vt 0.625000 0.562500
vt 0.375000 0.812500
vt 0.375000 0.562500
vt 0.562500 0.625000
vt 0.375000 0.812500
vt 0.375000 0.625000
vt 0.250000 0.125000
vt 0.625000 0.562500
vt 0.625000 0.812500
vt 0.562500 0.812500
vn 0.0000 0.0000 -1.0000
vn 0.0000 0.7071 -0.7071
vn 0.0000 -0.7071 -0.7071
usemtl Anvil
s 1
f 139/146/32 140/147/32 141/148/32
f 142/149/33 143/150/33 144/151/33
f 145/152/33 146/153/33 143/150/33
f 147/154/32 148/155/32 146/153/32
f 149/156/34 150/157/34 148/155/34
f 151/158/32 152/159/32 153/160/32
f 154/161/32 155/162/32 156/163/32
f 139/146/32 157/164/32 140/147/32
f 142/149/33 145/152/33 143/150/33
f 145/152/33 147/154/33 146/153/33
f 147/154/32 149/156/32 148/155/32
f 149/156/34 158/165/34 150/157/34
f 151/158/32 159/166/32 152/159/32
f 154/161/32 160/167/32 155/162/32
