# Blender v3.2.2 OBJ File: ''
# www.blender.org
mtllib fat_man.mtl
o Fat_Man
v 0.500001 0.750000 1.499999
v 0.772966 0.838692 1.423879
v 0.668703 0.982198 1.423879
v 0.772966 0.661309 1.423879
v 0.500001 1.037013 1.423879
v 0.668703 0.517802 1.423879
v 0.331299 0.982198 1.423879
v 0.500001 0.462988 1.423879
v 0.227036 0.838692 1.423879
v 0.331299 0.517802 1.423879
v 0.227036 0.661309 1.423879
v 0.850001 1.100000 1.350000
v 0.750001 1.100000 1.350000
v 0.750001 1.000000 1.350000
v 0.850001 1.000000 1.350000
v 0.850001 0.500000 1.350000
v 0.750001 0.500000 1.350000
v 0.750000 0.400000 1.350000
v 0.850000 0.400000 1.350000
v 0.250001 1.100000 1.350000
v 0.150001 1.100000 1.350000
v 0.150001 1.000000 1.350000
v 0.250001 1.000000 1.350000
v 0.250000 0.500000 1.350000
v 0.150001 0.500000 1.350000
v 0.150000 0.400000 1.350000
v 0.250000 0.400000 1.350000
v 1.004375 0.913881 1.207106
v 0.811721 1.179046 1.207106
v 1.004374 0.586119 1.207106
v 0.500001 1.280330 1.207106
v 0.811720 0.320954 1.207106
v 0.188281 1.179046 1.207106
v 0.500000 0.219670 1.207106
v -0.004374 0.913881 1.207106
v 0.188280 0.320954 1.207106
v -0.004374 0.586119 1.207106
v 0.850000 1.100000 1.050000
v 0.850000 1.000000 1.050000
v 0.750000 1.100000 1.050000
v 0.750000 1.000000 1.050000
v 0.850000 0.500000 1.050000
v 0.850000 0.400000 1.050000
v 0.750000 0.500000 1.050000
v 0.750000 0.400000 1.050000
v 0.250000 1.100000 1.050000
v 0.250000 1.000000 1.050000
v 0.150000 1.100000 1.050000
v 0.150000 1.000000 1.050000
v 0.250000 0.500000 1.050000
v 0.250000 0.400000 1.050000
v 0.150000 0.500000 1.050000
v 0.150000 0.400000 1.050000
v 1.158996 0.964121 0.882683
v 0.907282 1.310576 0.882683
v 1.158996 0.535880 0.882683
v 0.500000 1.442910 0.882683
v 0.907282 0.189425 0.882683
v 0.092718 1.310576 0.882683
v 0.500000 0.057091 0.882683
v -0.158996 0.964121 0.882683
v 0.092718 0.189425 0.882683
v -0.158996 0.535880 0.882683
v 1.213292 0.981763 0.499999
v 0.940839 1.356763 0.499999
v 1.213292 0.518238 0.499999
v 0.500000 1.500000 0.499999
v 0.940839 0.143238 0.499999
v 0.059161 1.356763 0.499999
v 0.500000 -0.000000 0.499999
v -0.213292 0.981763 0.499999
v 0.059161 0.143238 0.499999
v -0.213292 0.518238 0.499999
v 1.158996 0.964121 0.117316
v 0.907282 1.310576 0.117316
v 1.158996 0.535880 0.117316
v 0.500000 1.442910 0.117316
v 0.907282 0.189425 0.117316
v 0.092718 1.310576 0.117316
v 0.500000 0.057091 0.117316
v -0.158996 0.964121 0.117316
v 0.092718 0.189425 0.117316
v -0.158996 0.535880 0.117316
v 0.785315 0.842705 -0.800000
v 0.676335 0.992705 -0.800000
v 0.785315 0.657295 -0.800000
v 0.499999 1.050000 -0.800000
v 0.676333 0.507295 -0.800000
v 0.323664 0.992705 -0.800000
v 0.499998 0.450000 -0.800000
v 0.214681 0.842705 -0.800000
v 0.323662 0.507295 -0.800000
v 0.214681 0.657295 -0.800000
v 1.149999 1.400000 -0.800000
v 1.149998 0.750000 -0.800000
v 1.250000 1.500000 -0.800000
v 0.499999 1.400000 -0.800000
v 1.249998 -0.000000 -0.800000
v 1.149998 0.100000 -0.800000
v -0.250001 1.500000 -0.800000
v 0.499998 0.100000 -0.800000
v -0.150001 1.400000 -0.800000
v -0.250002 -0.000000 -0.800000
v -0.150002 0.750000 -0.800000
v -0.150002 0.100000 -0.800000
v 0.849998 1.100000 -1.200000
v 1.149998 1.400000 -1.400000
v 0.606064 0.856066 -1.200000
v 0.606066 0.856066 -0.400000
v 0.149998 1.100000 -1.200000
v 1.149998 0.750000 -1.400000
v 0.649998 0.750000 -1.200000
v 0.650000 0.750000 -0.400000
v 1.149998 0.100000 -1.400000
v 0.606064 0.643934 -1.200000
v 0.606066 0.643934 -0.399999
v 0.500000 0.900000 -0.400000
v 0.499998 0.900000 -1.200000
v 0.499998 1.400000 -1.400000
v 0.149998 0.400000 -1.200000
v 0.499998 0.100000 -1.400000
v 0.499998 0.600000 -1.200000
v 0.500000 0.600000 -0.399999
v 0.393934 0.856066 -0.400000
v 0.393932 0.856066 -1.200000
v -0.150002 1.400000 -1.400000
v -0.150002 0.750000 -1.400000
v 0.349998 0.750000 -1.200000
v 0.350000 0.750000 -0.400000
v -0.150002 0.100000 -1.400000
v 0.393932 0.643934 -1.200000
v 0.393934 0.643934 -0.399999
v 0.849998 0.400000 -1.200000
v 0.785315 0.842705 -1.200000
v 0.676334 0.992705 -1.200000
v 0.785315 0.657295 -1.200000
v 0.499999 1.050000 -1.200000
v 0.676334 0.507295 -1.200000
v 0.323663 0.992705 -1.200000
v 0.499998 0.450000 -1.200000
v 0.214681 0.842705 -1.200000
v 0.323662 0.507295 -1.200000
v 0.214681 0.657295 -1.200000
v 1.249998 1.500000 -1.400000
v 1.249998 -0.000000 -1.400000
v -0.250002 1.500000 -1.400000
v -0.250002 -0.000000 -1.400000
v 1.149998 0.750000 -0.800000
v 0.849998 1.100000 -1.200000
v 1.149999 1.400000 -0.800000
v 1.149998 1.400000 -1.400000
v 0.606066 0.856066 -0.400000
v 0.606064 0.856066 -1.200000
v 0.499999 1.400000 -0.800000
v 0.149998 1.100000 -1.200000
v -0.150001 1.400000 -0.800000
v 1.149998 0.750000 -1.400000
v 0.650000 0.750000 -0.400000
v 0.649998 0.750000 -1.200000
v 1.149998 0.100000 -1.400000
v 1.149998 0.100000 -0.800000
v 0.606066 0.643934 -0.399999
v 0.606064 0.643934 -1.200000
v -0.150002 0.750000 -0.800000
v 0.500000 0.900000 -0.400000
v 0.499998 1.400000 -1.400000
v 0.499998 0.900000 -1.200000
v 0.149998 0.400000 -1.200000
v 0.499998 0.100000 -0.800000
v -0.150002 0.100000 -0.800000
v 0.499998 0.100000 -1.400000
v 0.500000 0.600000 -0.399999
v 0.499998 0.600000 -1.200000
v 0.393934 0.856066 -0.400000
v -0.150002 1.400000 -1.400000
v 0.393932 0.856066 -1.200000
v -0.150002 0.750000 -1.400000
v 0.350000 0.750000 -0.400000
v 0.349998 0.750000 -1.200000
v -0.150002 0.100000 -1.400000
v 0.393934 0.643934 -0.399999
v 0.393932 0.643934 -1.200000
v 0.849998 0.400000 -1.200000
vt 0.009166 0.876834
vt 0.098018 0.849020
vt 0.098001 0.904650
vt 0.098018 0.849020
vt 0.098001 0.904650
vt 0.009129 0.876836
vt 0.098018 0.849020
vt 0.098001 0.904650
vt 0.098018 0.849020
vt 0.098037 0.904649
vt 0.098018 0.849020
vt 0.098037 0.904649
vt 0.098018 0.849020
vt 0.098037 0.904649
vt 0.098018 0.849020
vt 0.098001 0.904650
vt 0.098018 0.849020
vt 0.098037 0.904649
vt 0.098018 0.849020
vt 0.098001 0.904650
vt 0.098018 0.849020
vt 0.098037 0.904649
vt 0.916517 0.655663
vt 0.906630 0.665550
vt 0.896743 0.655663
vt 0.906630 0.645776
vt 0.899806 0.349949
vt 0.913788 0.349949
vt 0.913788 0.363931
vt 0.899806 0.363931
vt 0.916517 0.561715
vt 0.906630 0.571602
vt 0.896743 0.561715
vt 0.906630 0.551828
vt 0.906806 0.474525
vt 0.896919 0.464638
vt 0.906806 0.454751
vt 0.916693 0.464638
vt 0.197478 0.825439
vt 0.197478 0.928229
vt 0.197478 0.825439
vt 0.197478 0.928229
vt 0.197478 0.825439
vt 0.197478 0.928229
vt 0.197478 0.825439
vt 0.197478 0.928229
vt 0.197478 0.825439
vt 0.197478 0.928229
vt 0.197478 0.825439
vt 0.197478 0.928229
vt 0.197442 0.825440
vt 0.197442 0.928230
vt 0.197478 0.825439
vt 0.197478 0.928229
vt 0.197478 0.825439
vt 0.197478 0.928229
vt 0.197478 0.825439
vt 0.197478 0.928229
vt 0.946178 0.626002
vt 0.936291 0.616115
vt 0.946178 0.685324
vt 0.936291 0.695211
vt 0.867082 0.626002
vt 0.876969 0.616115
vt 0.876969 0.695211
vt 0.867082 0.685324
vt 0.857859 0.349949
vt 0.857859 0.363931
vt 0.899806 0.308001
vt 0.913788 0.308001
vt 0.913788 0.405878
vt 0.899806 0.405878
vt 0.955735 0.349949
vt 0.955735 0.363931
vt 0.946178 0.532054
vt 0.936291 0.522167
vt 0.946178 0.591377
vt 0.936291 0.601264
vt 0.867082 0.532054
vt 0.876969 0.522167
vt 0.876969 0.601264
vt 0.867082 0.591377
vt 0.936467 0.504186
vt 0.946354 0.494299
vt 0.877145 0.504186
vt 0.867258 0.494299
vt 0.936467 0.425090
vt 0.946354 0.434977
vt 0.867258 0.434977
vt 0.877145 0.425090
vt 0.310187 0.809683
vt 0.310187 0.943985
vt 0.310187 0.809683
vt 0.310187 0.943985
vt 0.310187 0.809683
vt 0.310187 0.943985
vt 0.310187 0.809683
vt 0.310187 0.943985
vt 0.310187 0.809683
vt 0.310187 0.943985
vt 0.310187 0.809683
vt 0.310187 0.943985
vt 0.310150 0.809683
vt 0.310187 0.943985
vt 0.310187 0.809683
vt 0.310187 0.943985
vt 0.310187 0.809683
vt 0.310187 0.943985
vt 0.310187 0.809683
vt 0.310187 0.943985
vt 0.431403 0.804150
vt 0.431403 0.949518
vt 0.431403 0.804150
vt 0.431403 0.949518
vt 0.431403 0.804150
vt 0.431403 0.949518
vt 0.431403 0.804150
vt 0.431403 0.949518
vt 0.431403 0.804150
vt 0.431403 0.949518
vt 0.431386 0.804150
vt 0.431403 0.949518
vt 0.431403 0.804150
vt 0.431403 0.949518
vt 0.431403 0.804150
vt 0.431403 0.949518
vt 0.431403 0.804150
vt 0.431403 0.949518
vt 0.431403 0.804150
vt 0.431403 0.949518
vt 0.552620 0.809683
vt 0.552620 0.943985
vt 0.552620 0.809683
vt 0.552620 0.943985
vt 0.552620 0.809683
vt 0.552620 0.943985
vt 0.552620 0.809683
vt 0.552620 0.943985
vt 0.552620 0.809683
vt 0.552620 0.943985
vt 0.552620 0.809683
vt 0.552620 0.943985
vt 0.552620 0.809683
vt 0.552620 0.943985
vt 0.552620 0.809683
vt 0.552620 0.943985
vt 0.552620 0.809683
vt 0.552620 0.943985
vt 0.552620 0.809683
vt 0.552620 0.943985
vt 0.863256 0.847760
vt 0.863256 0.905908
vt 0.863220 0.847759
vt 0.863239 0.905906
vt 0.863239 0.905906
vt 0.863220 0.847759
vt 0.863220 0.847759
vt 0.863239 0.905906
vt 0.863256 0.847760
vt 0.863256 0.905908
vt 0.863220 0.847759
vt 0.863239 0.905906
vt 0.863220 0.847759
vt 0.863239 0.905906
vt 0.863220 0.847759
vt 0.863239 0.905906
vt 0.863256 0.905908
vt 0.863256 0.847760
vt 0.863256 0.847760
vt 0.863256 0.905908
vt 0.261168 0.301042
vt 0.352053 0.301042
vt 0.247185 0.315025
vt 0.261168 0.210157
vt 0.456922 0.315025
vt 0.442939 0.301042
vt 0.247185 0.105289
vt 0.442939 0.210157
vt 0.261168 0.119271
vt 0.456921 0.105289
vt 0.352054 0.119271
vt 0.442939 0.119271
vt 0.541685 0.196174
vt 0.541685 0.287060
vt 0.471773 0.245113
vt 0.563320 0.329876
vt 0.535355 0.437434
vt 0.423496 0.437434
vt 0.479425 0.329876
vt 0.113483 0.484009
vt 0.204369 0.484009
vt 0.162422 0.553921
vt 0.334331 0.537049
vt 0.356168 0.609111
vt 0.268820 0.678989
vt 0.268820 0.589458
vt 0.253969 0.329876
vt 0.253969 0.441010
vt 0.145709 0.469158
vt 0.172774 0.350987
vt 0.626448 0.245113
vt 0.556536 0.287060
vt 0.556536 0.196174
vt 0.465443 0.554485
vt 0.577302 0.554484
vt 0.605267 0.624397
vt 0.521372 0.624397
vt 0.408644 0.452286
vt 0.450592 0.522198
vt 0.359706 0.522198
vt 0.687744 0.452286
vt 0.709581 0.524347
vt 0.622234 0.594225
vt 0.622234 0.504694
vt 0.268820 0.329876
vt 0.380680 0.329876
vt 0.408644 0.437434
vt 0.324750 0.437434
vt 0.607382 0.517796
vt 0.535321 0.539633
vt 0.465443 0.452286
vt 0.554974 0.452286
vt 0.130858 0.329876
vt 0.130858 0.441010
vt 0.022598 0.469158
vt 0.049663 0.350987
vt 0.471773 0.147236
vt 0.541685 0.105289
vt 0.064545 0.553921
vt 0.022598 0.484009
vt 0.988701 0.847760
vt 0.988701 0.905908
vt 0.988701 0.847760
vt 0.988701 0.905908
vt 0.988701 0.847760
vt 0.988701 0.905908
vt 0.988701 0.847760
vt 0.988701 0.905908
vt 0.988701 0.847760
vt 0.988701 0.905908
vt 0.988701 0.847760
vt 0.988701 0.905908
vt 0.310768 0.452286
vt 0.268820 0.522198
vt 0.988701 0.847760
vt 0.988701 0.905908
vt 0.988701 0.847760
vt 0.988701 0.905908
vt 0.988701 0.847760
vt 0.988701 0.905908
vt 0.988701 0.847760
vt 0.988701 0.905908
vt 0.626448 0.147236
vt 0.556536 0.105289
vt 0.641300 0.211026
vt 0.725194 0.211026
vt 0.725194 0.301911
vt 0.641300 0.301911
vt 0.651806 0.090437
vt 0.651806 0.006543
vt 0.861541 0.006543
vt 0.861541 0.090437
vt 0.121344 0.667518
vt 0.212229 0.667518
vt 0.212229 0.751413
vt 0.121344 0.751413
vt 0.690899 0.329876
vt 0.774794 0.329876
vt 0.774794 0.420762
vt 0.690899 0.420762
vt 0.442070 0.090437
vt 0.442070 0.006543
vt 0.465443 0.639248
vt 0.556328 0.639248
vt 0.556328 0.723142
vt 0.465443 0.723142
vt 0.121344 0.568772
vt 0.212229 0.568772
vt 0.212229 0.652667
vt 0.121344 0.652667
vt 0.022598 0.006543
vt 0.232334 0.006543
vt 0.232334 0.090437
vt 0.022598 0.090437
vt 0.622234 0.609077
vt 0.706128 0.609077
vt 0.706128 0.699962
vt 0.622234 0.699962
vt 0.022598 0.659658
vt 0.022598 0.568772
vt 0.106492 0.568772
vt 0.106492 0.659658
vt 0.641300 0.105289
vt 0.725194 0.105289
vt 0.725194 0.196174
vt 0.641300 0.196174
vt 0.030609 0.739059
vt 0.022598 0.714404
vt 0.030609 0.689748
vt 0.077507 0.754298
vt 0.051583 0.754298
vt 0.051583 0.674509
vt 0.077507 0.674509
vt 0.106492 0.714404
vt 0.098481 0.739059
vt 0.098481 0.689748
vt 0.036581 0.301043
vt 0.022598 0.315025
vt 0.036580 0.210157
vt 0.127466 0.301043
vt 0.022598 0.105289
vt 0.036580 0.119272
vt 0.232334 0.315025
vt 0.127466 0.119271
vt 0.218352 0.301043
vt 0.232334 0.105289
vt 0.218352 0.210157
vt 0.218352 0.119271
vt 0.541685 0.196174
vt 0.471773 0.245113
vt 0.541685 0.287060
vt 0.563320 0.329876
vt 0.479425 0.329876
vt 0.423496 0.437434
vt 0.535355 0.437434
vt 0.113483 0.484009
vt 0.162422 0.553921
vt 0.204369 0.484009
vt 0.334331 0.537049
vt 0.268820 0.589458
vt 0.268820 0.678989
vt 0.356168 0.609111
vt 0.253969 0.329876
vt 0.172774 0.350987
vt 0.145709 0.469158
vt 0.253969 0.441010
vt 0.626448 0.245113
vt 0.556536 0.196174
vt 0.556536 0.287060
vt 0.465443 0.554485
vt 0.521372 0.624397
vt 0.605267 0.624397
vt 0.577302 0.554484
vt 0.408644 0.452286
vt 0.359706 0.522198
vt 0.450592 0.522198
vt 0.687744 0.452286
vt 0.622234 0.504694
vt 0.622234 0.594225
vt 0.709581 0.524347
vt 0.268820 0.329876
vt 0.324750 0.437434
vt 0.408644 0.437434
vt 0.380680 0.329876
vt 0.607382 0.517796
vt 0.554974 0.452286
vt 0.465443 0.452286
vt 0.535321 0.539633
vt 0.130858 0.329876
vt 0.049663 0.350987
vt 0.022598 0.469158
vt 0.130858 0.441010
vt 0.541685 0.105289
vt 0.471773 0.147236
vt 0.022598 0.484009
vt 0.064545 0.553921
vt 0.310768 0.452286
vt 0.268820 0.522198
vt 0.626448 0.147236
vt 0.556536 0.105289
vn 0.2173 0.1579 0.9632
vn 0.2686 0.0000 0.9632
vn 0.0830 0.2555 0.9632
vn 0.2173 -0.1579 0.9632
vn -0.0830 0.2555 0.9632
vn 0.0830 -0.2555 0.9632
vn -0.2173 0.1579 0.9632
vn -0.0830 -0.2555 0.9632
vn -0.2686 0.0000 0.9632
vn -0.2173 -0.1579 0.9632
vn 0.0000 0.0000 1.0000
vn 0.5531 0.4018 0.7298
vn 0.6837 -0.0000 0.7298
vn 0.2113 0.6502 0.7298
vn 0.5531 -0.4018 0.7298
vn -0.2113 0.6502 0.7298
vn 0.2113 -0.6502 0.7298
vn -0.5531 0.4018 0.7298
vn -0.2113 -0.6502 0.7298
vn -0.6836 0.0000 0.7298
vn -0.5531 -0.4018 0.7298
vn 1.0000 0.0000 -0.0000
vn 0.0000 1.0000 0.0000
vn 0.0000 -1.0000 0.0000
vn -1.0000 0.0000 0.0000
vn 0.7303 0.5306 0.4302
vn 0.9027 -0.0000 0.4302
vn 0.2790 0.8585 0.4302
vn 0.7303 -0.5306 0.4302
vn -0.2790 0.8585 0.4302
vn 0.2790 -0.8585 0.4302
vn -0.7303 0.5306 0.4302
vn -0.2790 -0.8585 0.4302
vn -0.9027 0.0000 0.4302
vn -0.7303 -0.5306 0.4302
vn 0.8010 0.5820 0.1405
vn 0.9901 0.0000 0.1405
vn 0.3060 0.9416 0.1405
vn 0.8010 -0.5820 0.1405
vn -0.3060 0.9416 0.1405
vn 0.3060 -0.9416 0.1405
vn -0.8010 0.5820 0.1405
vn -0.3060 -0.9416 0.1405
vn -0.9901 -0.0000 0.1405
vn -0.8010 -0.5820 0.1405
vn 0.8010 0.5820 -0.1405
vn 0.9901 0.0000 -0.1405
vn 0.3060 0.9416 -0.1405
vn 0.8010 -0.5820 -0.1405
vn -0.3060 0.9416 -0.1405
vn 0.3060 -0.9416 -0.1405
vn -0.8010 0.5820 -0.1405
vn -0.3060 -0.9416 -0.1405
vn -0.9901 -0.0000 -0.1405
vn -0.8010 -0.5820 -0.1405
vn 0.7492 0.5444 -0.3773
vn 0.9261 -0.0000 -0.3773
vn 0.2862 0.8808 -0.3773
vn 0.7492 -0.5444 -0.3773
vn -0.2862 0.8808 -0.3773
vn 0.2862 -0.8808 -0.3773
vn -0.7492 0.5444 -0.3773
vn -0.2862 -0.8808 -0.3773
vn -0.9261 -0.0000 -0.3773
vn -0.7492 -0.5444 -0.3773
vn -0.8000 0.0000 0.6000
vn -0.7071 0.7071 0.0000
vn 0.0000 -0.8000 0.6000
vn 0.7071 0.7071 -0.0000
vn 0.8000 -0.0000 0.6000
vn 0.0000 0.8000 0.6000
vn 0.7071 -0.7071 -0.0000
vn 0.8090 0.5878 -0.0000
vn 0.3090 0.9511 -0.0000
vn 0.8090 -0.5878 0.0000
vn -0.3090 0.9511 0.0000
vn 0.3090 -0.9511 0.0000
vn -0.8090 0.5878 0.0000
vn -0.3090 -0.9511 0.0000
vn -0.8090 -0.5878 0.0000
vn -0.0000 -0.0000 -1.0000
vn 0.8000 -0.0000 -0.6000
vn -0.0000 0.8000 -0.6000
vn -0.7071 -0.7071 0.0000
vn -0.8000 0.0000 -0.6000
vn -0.0000 -0.8000 -0.6000
usemtl Fat_Man
s 1
f 1/1/1 2/2/1 3/3/1
f 1/1/2 4/4/2 2/5/2
f 1/6/3 3/7/3 5/8/3
f 1/1/4 6/9/4 4/10/4
f 1/1/5 5/11/5 7/12/5
f 1/6/6 8/13/6 6/14/6
f 1/6/7 7/15/7 9/16/7
f 1/6/8 10/17/8 8/18/8
f 1/1/9 9/19/9 11/20/9
f 1/1/10 11/21/10 10/22/10
f 12/23/11 13/24/11 14/25/11 15/26/11
f 16/27/11 17/28/11 18/29/11 19/30/11
f 20/31/11 21/32/11 22/33/11 23/34/11
f 24/35/11 25/36/11 26/37/11 27/38/11
f 3/3/12 2/2/12 28/39/12 29/40/12
f 4/4/13 30/41/13 28/42/13 2/5/13
f 3/7/14 29/43/14 31/44/14 5/8/14
f 6/9/15 32/45/15 30/46/15 4/10/15
f 5/11/16 31/47/16 33/48/16 7/12/16
f 8/13/17 34/49/17 32/50/17 6/14/17
f 7/15/18 33/51/18 35/52/18 9/16/18
f 8/18/19 10/17/19 36/53/19 34/54/19
f 9/19/20 35/55/20 37/56/20 11/20/20
f 11/21/21 37/57/21 36/58/21 10/22/21
f 38/59/22 12/23/22 15/26/22 39/60/22
f 38/61/23 40/62/23 13/24/23 12/23/23
f 15/26/24 14/25/24 41/63/24 39/64/24
f 13/24/25 40/65/25 41/66/25 14/25/25
f 42/67/22 16/27/22 19/30/22 43/68/22
f 42/69/23 44/70/23 17/28/23 16/27/23
f 19/30/24 18/29/24 45/71/24 43/72/24
f 17/28/25 44/73/25 45/74/25 18/29/25
f 46/75/22 20/31/22 23/34/22 47/76/22
f 46/77/23 48/78/23 21/32/23 20/31/23
f 23/34/24 22/33/24 49/79/24 47/80/24
f 21/32/25 48/81/25 49/82/25 22/33/25
f 50/83/22 24/35/22 27/38/22 51/84/22
f 50/85/23 52/86/23 25/36/23 24/35/23
f 27/38/24 26/37/24 53/87/24 51/88/24
f 25/36/25 52/89/25 53/90/25 26/37/25
f 28/39/26 54/91/26 55/92/26 29/40/26
f 28/42/27 30/41/27 56/93/27 54/94/27
f 29/43/28 55/95/28 57/96/28 31/44/28
f 30/46/29 32/45/29 58/97/29 56/98/29
f 33/48/30 31/47/30 57/99/30 59/100/30
f 34/49/31 60/101/31 58/102/31 32/50/31
f 33/51/32 59/103/32 61/104/32 35/52/32
f 36/53/33 62/105/33 60/106/33 34/54/33
f 35/55/34 61/107/34 63/108/34 37/56/34
f 37/57/35 63/109/35 62/110/35 36/58/35
f 55/92/36 54/91/36 64/111/36 65/112/36
f 54/94/37 56/93/37 66/113/37 64/114/37
f 55/95/38 65/115/38 67/116/38 57/96/38
f 58/97/39 68/117/39 66/118/39 56/98/39
f 57/99/40 67/119/40 69/120/40 59/100/40
f 58/102/41 60/101/41 70/121/41 68/122/41
f 59/103/42 69/123/42 71/124/42 61/104/42
f 62/105/43 72/125/43 70/126/43 60/106/43
f 63/108/44 61/107/44 71/127/44 73/128/44
f 63/109/45 73/129/45 72/130/45 62/110/45
f 64/111/46 74/131/46 75/132/46 65/112/46
f 66/113/47 76/133/47 74/134/47 64/114/47
f 65/115/48 75/135/48 77/136/48 67/116/48
f 68/117/49 78/137/49 76/138/49 66/118/49
f 67/119/50 77/139/50 79/140/50 69/120/50
f 70/121/51 80/141/51 78/142/51 68/122/51
f 69/123/52 79/143/52 81/144/52 71/124/52
f 72/125/53 82/145/53 80/146/53 70/126/53
f 71/127/54 81/147/54 83/148/54 73/128/54
f 72/130/55 73/129/55 83/149/55 82/150/55
f 84/151/56 85/152/56 75/132/56 74/131/56
f 86/153/57 84/154/57 74/134/57 76/133/57
f 87/155/58 77/136/58 75/135/58 85/156/58
f 88/157/59 86/158/59 76/138/59 78/137/59
f 77/139/60 87/159/60 89/160/60 79/140/60
f 90/161/61 88/162/61 78/142/61 80/141/61
f 89/163/62 91/164/62 81/144/62 79/143/62
f 92/165/63 90/166/63 80/146/63 82/145/63
f 93/167/64 83/148/64 81/147/64 91/168/64
f 93/169/65 92/170/65 82/150/65 83/149/65
f 94/171/11 95/172/11 96/173/11
f 94/171/11 96/173/11 97/174/11
f 98/175/11 96/173/11 95/172/11
f 95/172/11 99/176/11 98/175/11
f 100/177/11 97/174/11 96/173/11
f 98/175/11 99/176/11 101/178/11
f 100/177/11 102/179/11 97/174/11
f 103/180/11 98/175/11 101/178/11
f 102/179/11 100/177/11 104/181/11
f 103/180/11 104/181/11 100/177/11
f 101/178/11 105/182/11 103/180/11
f 103/180/11 105/182/11 104/181/11
f 95/183/66 94/184/66 106/185/66
f 107/186/67 108/187/67 109/188/67 94/189/67
f 97/190/68 102/191/68 110/192/68
f 111/193/23 112/194/23 113/195/23 95/196/23
f 114/197/69 115/198/69 116/199/69 99/200/69
f 110/201/70 102/202/70 104/203/70
f 117/204/22 118/205/22 119/206/22 97/207/22
f 120/208/71 105/209/71 101/210/71
f 121/211/22 122/212/22 123/213/22 101/214/22
f 124/215/69 125/216/69 126/217/69 102/218/69
f 127/219/24 128/220/24 129/221/24 104/222/24
f 130/223/72 131/224/72 132/225/72 105/226/72
f 106/185/66 133/227/66 99/228/66 95/183/66
f 110/192/68 106/229/68 94/230/68 97/190/68
f 84/151/73 134/231/73 135/232/73 85/152/73
f 86/153/22 136/233/22 134/234/22 84/154/22
f 87/155/74 85/156/74 135/235/74 137/236/74
f 86/158/75 88/157/75 138/237/75 136/238/75
f 87/159/76 137/239/76 139/240/76 89/160/76
f 90/161/77 140/241/77 138/242/77 88/162/77
f 133/243/71 120/208/71 101/210/71 99/244/71
f 91/164/78 89/163/78 139/245/78 141/246/78
f 90/166/79 92/165/79 142/247/79 140/248/79
f 91/168/25 141/249/25 143/250/25 93/167/25
f 93/169/80 143/251/80 142/252/80 92/170/80
f 120/253/70 110/201/70 104/203/70 105/254/70
f 111/255/25 95/256/25 94/257/25 107/258/25
f 144/259/22 96/260/22 98/261/22 145/262/22
f 94/263/24 97/264/24 119/265/24 107/266/24
f 114/267/25 99/268/25 95/269/25 111/270/25
f 146/271/23 100/272/23 96/260/23 144/259/23
f 114/273/23 121/274/23 101/275/23 99/276/23
f 97/277/24 102/278/24 126/279/24 119/280/24
f 98/281/24 103/282/24 147/283/24 145/284/24
f 104/285/22 127/286/22 126/287/22 102/288/22
f 121/289/23 130/290/23 105/291/23 101/292/23
f 100/272/25 146/271/25 147/283/25 103/282/25
f 105/293/22 130/294/22 127/295/22 104/296/22
f 135/297/81 134/298/81 136/299/81
f 135/297/81 136/299/81 139/300/81
f 139/300/81 137/301/81 135/297/81
f 136/299/81 138/302/81 140/303/81
f 136/299/81 140/303/81 139/300/81
f 140/303/81 143/304/81 139/300/81
f 143/304/81 141/305/81 139/300/81
f 140/303/81 142/306/81 143/304/81
f 107/307/81 144/308/81 111/309/81
f 144/308/81 107/307/81 119/310/81
f 144/308/81 145/311/81 111/309/81
f 114/312/81 111/309/81 145/311/81
f 144/308/81 119/310/81 146/313/81
f 121/314/81 114/312/81 145/311/81
f 126/315/81 146/313/81 119/310/81
f 121/314/81 145/311/81 147/316/81
f 126/315/81 127/317/81 146/313/81
f 147/316/81 146/313/81 127/317/81
f 147/316/81 130/318/81 121/314/81
f 127/317/81 130/318/81 147/316/81
f 148/319/82 149/320/82 150/321/82
f 151/322/72 150/323/72 152/324/72 153/325/72
f 154/326/83 155/327/83 156/328/83
f 157/329/24 148/330/24 158/331/24 159/332/24
f 160/333/84 161/334/84 162/335/84 163/336/84
f 155/337/85 164/338/85 156/339/85
f 165/340/25 154/341/25 166/342/25 167/343/25
f 168/344/86 169/345/86 170/346/86
f 171/347/25 169/348/25 172/349/25 173/350/25
f 174/351/84 156/352/84 175/353/84 176/354/84
f 177/355/23 164/356/23 178/357/23 179/358/23
f 180/359/67 170/360/67 181/361/67 182/362/67
f 149/320/82 148/319/82 161/363/82 183/364/82
f 155/327/83 154/326/83 150/365/83 149/366/83
f 183/367/86 161/368/86 169/345/86 168/344/86
f 168/369/85 170/370/85 164/338/85 155/337/85
